<?xml version="1.0" encoding="UTF-8"?>
<svg version="1.1" xmlns="http://www.w3.org/2000/svg" width="1024" height="1024">
<path d="M0 0 C337.92 0 675.84 0 1024 0 C1024 337.92 1024 675.84 1024 1024 C686.08 1024 348.16 1024 0 1024 C0 686.08 0 348.16 0 0 Z " fill="#FEFEFE" transform="translate(0,0)"/>
<path d="M0 0 C0.82404327 -0.00100708 1.64808655 -0.00201416 2.49710083 -0.00305176 C26.2629458 0.01639305 49.70945044 2.44715798 73 7.25 C73.9502002 7.44400391 74.90040039 7.63800781 75.87939453 7.83789062 C89.36896979 10.66363706 102.4387518 14.52046571 115.5 18.875 C116.20864197 19.11074738 116.91728394 19.34649475 117.6473999 19.58938599 C125.26434035 22.13733975 132.72427261 24.82139395 140 28.25 C140 28.91 140 29.57 140 30.25 C140.63421875 30.35054687 141.2684375 30.45109375 141.921875 30.5546875 C149.42209944 32.0671637 155.85431544 34.86020452 162.6875 38.25 C163.58500977 38.68940918 164.48251953 39.12881836 165.40722656 39.58154297 C166.6655127 40.2218042 166.6655127 40.2218042 167.94921875 40.875 C169.08363403 41.45121094 169.08363403 41.45121094 170.2409668 42.0390625 C172 43.25 172 43.25 173 46.25 C174.64022489 46.97930415 176.31280876 47.63713139 178 48.25 C179.64315694 49.19838158 181.2681942 50.1787545 182.875 51.1875 C185.71060154 52.92639094 188.28495666 54.36609345 191.375 55.625 C199.26262917 59.16083377 205.94566025 64.14127996 212 70.25 C214.49476062 72.39192308 217.05812691 74.44540314 219.625 76.5 C221.05099608 77.64817074 222.47677639 78.79660951 223.90234375 79.9453125 C224.94624268 80.78497559 224.94624268 80.78497559 226.01123047 81.64160156 C227.78983391 83.08003018 229.55670145 84.53074696 231.31640625 85.9921875 C232.26386719 86.77851563 233.21132813 87.56484375 234.1875 88.375 C235.00605469 89.05820313 235.82460938 89.74140625 236.66796875 90.4453125 C238.95733723 92.29739126 238.95733723 92.29739126 241.5 93.7109375 C244.31924896 95.44653764 246.46765066 97.41681658 248.8125 99.75 C249.60269531 100.5234375 250.39289062 101.296875 251.20703125 102.09375 C253 104.25 253 104.25 253 107.25 C253.83144531 107.35054687 253.83144531 107.35054687 254.6796875 107.453125 C257.95576571 108.57824277 259.69809137 110.55135786 262.125 113 C262.99382813 113.86109375 263.86265625 114.7221875 264.7578125 115.609375 C266.95259053 118.19416584 267.78308807 120.14393044 269 123.25 C270.97802994 125.65964112 270.97802994 125.65964112 273.375 128.0625 C294.49522278 150.73478526 334 200.60639341 334 232.25 C334.66 232.25 335.32 232.25 336 232.25 C345.94944189 260.3372293 353.39943483 288.57982095 357 318.25 C357.08588379 318.94088715 357.17176758 319.63177429 357.26025391 320.34359741 C358.07753749 327.54581742 358.17808334 334.70204259 358.203125 341.9453125 C358.20882507 343.25039764 358.21452515 344.55548279 358.22039795 345.90011597 C358.23084298 348.65851216 358.23672534 351.41687985 358.24023438 354.17529297 C358.2445827 356.95016898 358.25834378 359.72472769 358.28125 362.49951172 C358.42233253 379.94657442 357.78264887 396.98723373 355 414.25 C354.84540314 415.21297501 354.69080627 416.17595001 354.53152466 417.16810608 C351.66686737 434.77154222 347.91461165 452.39923225 342 469.25 C341.34 469.25 340.68 469.25 340 469.25 C339.77054688 470.48105469 339.54109375 471.71210937 339.3046875 472.98046875 C337.93916202 479.11813382 335.53388819 484.77203845 333.125 490.5625 C330.53216638 496.83684962 328.00993422 503.07216413 325.93359375 509.5390625 C324.34675682 514.41514685 322.42686045 518.83740694 319.9375 523.3125 C319.59912109 523.94865234 319.26074219 524.58480469 318.91210938 525.24023438 C317.2181909 528.35612696 315.5090518 530.78098626 313 533.25 C311.81153027 535.24605639 310.67240253 537.27171148 309.5625 539.3125 C299.14648486 557.97740675 286.33810804 575.32853475 272.375 591.48046875 C268.19241606 596.28299587 268.19241606 596.28299587 264.69091797 601.57617188 C261.71407819 606.28341261 257.57829009 610.00452313 253.64892578 613.91674805 C252.12767004 615.43483552 250.62024916 616.96579098 249.11328125 618.49804688 C248.14143638 619.47216433 247.16880597 620.44549884 246.1953125 621.41796875 C244.88071045 622.73704224 244.88071045 622.73704224 243.53955078 624.08276367 C241.03748192 626.21801317 239.06753291 627.17016105 236 628.25 C233.72677093 630.12806446 233.72677093 630.12806446 231.4375 632.4375 C216.81486122 646.02404272 199.9824795 656.87643164 183 667.25 C182.30712891 667.6737793 181.61425781 668.09755859 180.90039062 668.53417969 C171.49584399 674.25 171.49584399 674.25 169 674.25 C168.67 675.24 168.34 676.23 168 677.25 C164.4838085 679.43492489 160.73018768 681.14394798 156.99316406 682.9206543 C155.15842483 683.79654327 153.33711025 684.69654711 151.515625 685.59960938 C144.39815599 689.02206849 137.8691243 691.37978873 130 692.25 C130 692.91 130 693.57 130 694.25 C124.33251843 697.08374078 119.30267439 697.88223832 113 698.25 C113 698.91 113 699.57 113 700.25 C77.91813866 712.30004251 41.97690277 717.63205254 5.0012207 717.62060547 C2.23174517 717.62044435 -0.53705873 717.63413265 -3.30639648 717.66162109 C-28.77753272 717.91012796 -53.76041356 715.86925658 -78.6875 710.25 C-79.96439697 709.96729248 -81.24129395 709.68458496 -82.55688477 709.39331055 C-101.9867292 704.93873226 -121.96192208 698.77080569 -140 690.25 C-140 689.59 -140 688.93 -140 688.25 C-140.64582031 688.14945313 -141.29164063 688.04890625 -141.95703125 687.9453125 C-152.61998954 685.8156382 -161.59534092 680.51832332 -171 675.25 C-171 674.59 -171 673.93 -171 673.25 C-171.70382812 672.99089844 -172.40765625 672.73179687 -173.1328125 672.46484375 C-176.23573315 671.15011851 -178.9910627 669.5540985 -181.875 667.8125 C-185.13313117 665.87835848 -188.28276519 664.00968055 -191.8125 662.625 C-196.71329737 660.51093055 -200.59542837 657.69735046 -204.30859375 653.87109375 C-207.14636951 651.10745437 -210.17613017 648.90392473 -213.4375 646.6875 C-219.3673822 642.57506968 -224.84943373 638.10862206 -230.20483398 633.27319336 C-230.74567627 632.79245361 -231.28651855 632.31171387 -231.84375 631.81640625 C-232.54274414 631.18134155 -232.54274414 631.18134155 -233.25585938 630.53344727 C-235.08501868 629.09670468 -235.08501868 629.09670468 -237.79589844 627.96606445 C-241.67565123 625.88813224 -244.34818073 623.33398875 -247.421875 620.2265625 C-248.00793518 619.6433725 -248.59399536 619.0601825 -249.19781494 618.45932007 C-250.42837144 617.23079568 -251.65518522 615.99851209 -252.87841797 614.76269531 C-254.74775233 612.87726702 -256.63259165 611.00841533 -258.51953125 609.140625 C-259.71710913 607.9410651 -260.91375629 606.74057514 -262.109375 605.5390625 C-262.67082214 604.98368805 -263.23226929 604.4283136 -263.81072998 603.85610962 C-266.78917036 600.82361312 -268.66568264 598.28329746 -270 594.25 C-271.74919174 592.07042668 -271.74919174 592.07042668 -273.875 589.9375 C-278.5891418 584.87246739 -282.68668366 579.4686331 -286.74951172 573.87182617 C-289.59062236 569.99190165 -292.58369359 566.64964151 -296 563.25 C-297.44935841 561.30968776 -298.84588564 559.32881404 -300.1875 557.3125 C-300.86167969 556.31347656 -301.53585937 555.31445312 -302.23046875 554.28515625 C-304 551.25 -304 551.25 -304.92578125 548.18359375 C-305.81693821 545.09906696 -305.81693821 545.09906696 -308.35180664 542.94433594 C-311.08752118 540.16095384 -312.65177727 537.6576777 -314.4453125 534.20703125 C-315.04730469 533.05009766 -315.64929688 531.89316406 -316.26953125 530.70117188 C-316.57455566 530.10232178 -316.87958008 529.50347168 -317.19384766 528.88647461 C-318.11716648 527.07784458 -319.05922779 525.27996925 -320.00390625 523.48242188 C-323.42290944 516.84661461 -326.13609099 510.47264742 -328 503.25 C-328.55169778 501.53814762 -329.11051011 499.82849397 -329.6875 498.125 C-329.93886719 497.37992188 -330.19023437 496.63484375 -330.44921875 495.8671875 C-330.63097656 495.33351563 -330.81273437 494.79984375 -331 494.25 C-331.66 494.25 -332.32 494.25 -333 494.25 C-344.29213354 466.75760193 -351.61087724 438.39810501 -355.8125 409 C-355.91782043 408.26664429 -356.02314087 407.53328857 -356.13165283 406.77770996 C-358.30093789 391.48577491 -359.23810602 376.30874304 -359.25 360.875 C-359.25101212 359.67679123 -359.25101212 359.67679123 -359.25204468 358.45437622 C-359.19731517 317.12541776 -352.40802308 276.03799246 -338 237.25 C-337.34 237.25 -336.68 237.25 -336 237.25 C-335.87544434 236.52780273 -335.75088867 235.80560547 -335.62255859 235.06152344 C-335.0068703 232.28102683 -334.14220504 229.88716338 -333.0390625 227.265625 C-332.64976562 226.32976562 -332.26046875 225.39390625 -331.859375 224.4296875 C-331.45203125 223.46289062 -331.0446875 222.49609375 -330.625 221.5 C-327.26779077 213.52006018 -327.26779077 213.52006018 -324.37890625 205.36328125 C-323.32188591 202.08446573 -322.06425046 199.17021024 -320.3125 196.1875 C-319.87550781 195.43339844 -319.43851563 194.67929687 -318.98828125 193.90234375 C-318.66214844 193.35707031 -318.33601563 192.81179688 -318 192.25 C-317.34 192.25 -316.68 192.25 -316 192.25 C-315.75894531 191.59257812 -315.51789063 190.93515625 -315.26953125 190.2578125 C-303.25508682 161.79282109 -281.65222054 135.65605518 -259.82563782 114.12693787 C-257.70629661 112.03457422 -255.59246732 109.93667583 -253.47875977 107.83862305 C-252.3643133 106.73430049 -251.24808815 105.63177015 -250.13012695 104.53100586 C-248.50518233 102.9303319 -246.88679536 101.32327284 -245.26953125 99.71484375 C-244.77056839 99.22620346 -244.27160553 98.73756317 -243.75752258 98.2341156 C-241.24620657 95.72361682 -239.44715126 93.48539508 -238 90.25 C-233.88300221 85.57665115 -233.88300221 85.57665115 -230.6875 84.39453125 C-227.32156767 82.9610746 -225.06756939 80.96444968 -222.3125 78.5625 C-217.75807462 74.64587802 -213.07472629 71.14421881 -208.1015625 67.765625 C-205.8154817 66.20206527 -205.8154817 66.20206527 -203.4375 63.6875 C-199.24005125 59.49005125 -194.41264397 56.03874899 -188.75 54.1875 C-185.20997336 52.98067274 -183.5911148 50.90589267 -181 48.25 C-177.20549593 46.0042731 -175.46379252 45.25 -171 45.25 C-170.67 44.26 -170.34 43.27 -170 42.25 C-167.65283203 40.78295898 -167.65283203 40.78295898 -164.5078125 39.24609375 C-163.34169434 38.6752002 -162.17557617 38.10430664 -160.97412109 37.51611328 C-159.69177784 36.90511031 -158.40871745 36.2956105 -157.125 35.6875 C-156.15061981 35.22171539 -156.15061981 35.22171539 -155.15655518 34.746521 C-106.63901682 11.62758502 -53.68230822 0.04606702 0 0 Z " fill="#FDFEFE" transform="translate(512,152.75)"/>
<path d="M0 0 C4.30224268 0.86044854 7.08767027 1.8275625 10.9375 3.75 C11.93652344 4.23984375 12.93554688 4.7296875 13.96484375 5.234375 C14.96644531 5.81703125 15.96804688 6.3996875 17 7 C18.03691483 7.57415146 19.07382965 8.14830292 20.14216614 8.73985291 C22.4180531 10.69558448 22.9593907 11.79707918 23.55586815 14.77762032 C23.77768297 18.50118116 23.80011827 22.20056601 23.76049805 25.92797852 C23.76699512 27.36424078 23.77605892 28.80049339 23.78749084 30.23672485 C23.81057252 34.1367444 23.79584188 38.03578496 23.77302146 41.93577313 C23.75405379 46.03572234 23.76527478 50.1356079 23.77192688 54.23558044 C23.77827115 61.13662134 23.760001 68.03727323 23.72729492 74.93823242 C23.69002145 82.86740612 23.69147964 90.79583489 23.7143361 98.72504669 C23.7354664 106.39079904 23.72789467 114.05628157 23.70801735 121.72202873 C23.70011986 124.96277721 23.7019154 128.20329192 23.71204185 131.44403267 C23.75501116 148.52169081 23.49472004 164.63033106 18 181 C17.68540329 182.0391304 17.37080658 183.0782608 17.04667664 184.14888 C16.29230334 186.59853349 15.47840255 189.01306625 14.625 191.4296875 C14.33318848 192.27822296 14.04137695 193.12675842 13.74072266 194.00100708 C12.83500707 196.62847272 11.91780024 199.25173512 11 201.875 C10.3898638 203.6403621 9.78048733 205.40598696 9.171875 207.171875 C7.72830798 211.35336589 6.26844368 215.52891329 4.80224609 219.70251465 C4.03120173 221.91064399 3.27356551 224.12292754 2.51953125 226.33691406 C2.07566753 227.62309751 1.63166677 228.90923368 1.1875 230.1953125 C0.80980469 231.30148926 0.43210937 232.40766602 0.04296875 233.54736328 C-1 236 -1 236 -3 237 C-4.6674606 237.08426094 -6.33825187 237.10725143 -8.0078125 237.09765625 C-8.99394531 237.09443359 -9.98007812 237.09121094 -10.99609375 237.08789062 C-12.02863281 237.07951172 -13.06117188 237.07113281 -14.125 237.0625 C-15.68541016 237.05573242 -15.68541016 237.05573242 -17.27734375 237.04882812 C-19.85161962 237.03701952 -22.42578146 237.02055075 -25 237 C-25.63682549 235.44120893 -26.27026923 233.88103609 -26.90234375 232.3203125 C-27.25546631 231.45164551 -27.60858887 230.58297852 -27.97241211 229.68798828 C-29.23778115 226.37800656 -30.24114618 223.02868019 -31.19140625 219.6171875 C-32.07579217 216.75468233 -33.13614233 213.974316 -34.19288635 211.17190552 C-35.41862994 207.87348618 -36.56122024 204.54826552 -37.69921875 201.21875 C-37.9391304 200.51979614 -38.17904205 199.82084229 -38.42622375 199.10070801 C-39.18104726 196.90083542 -39.93430203 194.7004296 -40.6875 192.5 C-41.20367168 190.99475587 -41.71994682 189.48954722 -42.23632812 187.984375 C-43.49207981 184.32332498 -44.74642639 180.66179635 -46 177 C-48.92056786 184.04421088 -51.45961488 191.15703397 -53.8203125 198.40625 C-54.52718889 200.55213435 -55.23422466 202.69796621 -55.94140625 204.84375 C-57.04084457 208.19197204 -58.1383349 211.54080986 -59.23291016 214.890625 C-60.29851715 218.14756686 -61.37143427 221.40202767 -62.4453125 224.65625 C-62.77242218 225.66449829 -63.09953186 226.67274658 -63.43655396 227.71154785 C-63.74382416 228.64011597 -64.05109436 229.56868408 -64.36767578 230.52539062 C-64.63540802 231.3435022 -64.90314026 232.16161377 -65.1789856 233.0045166 C-66 235 -66 235 -68 237 C-71.62432864 237.50499972 -75.28196747 237.41669052 -78.9375 237.4375 C-79.95263672 237.47037109 -80.96777344 237.50324219 -82.01367188 237.53710938 C-84.76230794 237.5571193 -87.29689897 237.5000359 -90 237 C-92.06640625 234.87109375 -92.06640625 234.87109375 -93 232 C-93.350625 230.98164062 -93.70125 229.96328125 -94.0625 228.9140625 C-94.371875 227.82867188 -94.68125 226.74328125 -95 225.625 C-96.15671099 221.58615078 -97.50692129 217.82469766 -99.20117188 213.98291016 C-100.85254434 209.8837515 -102.0035992 205.61076505 -103.25 201.375 C-105.84254597 192.69753896 -108.60095006 184.09642297 -111.50805664 175.51977539 C-113.37177857 169.98554935 -115.08086114 164.4263368 -116.6875 158.8125 C-121.14786267 143.42637613 -127.48867694 129.09781752 -142.12646484 121.02612305 C-144.72983382 119.64091176 -147.35692909 118.30762455 -150 117 C-150 116.67 -150 116.34 -150 116 C-135.82552504 115.61106624 -135.82552504 115.61106624 -129 118 C-128.21109375 118.25652344 -127.4221875 118.51304687 -126.609375 118.77734375 C-120.09616171 121.10491844 -115.17506699 124.45367947 -110 129 C-109.38253906 129.52335938 -108.76507813 130.04671875 -108.12890625 130.5859375 C-97.48824652 140.30235285 -93.83812348 153.63302295 -90 167 C-89.5651539 168.47956464 -89.12900329 169.95874665 -88.69140625 171.4375 C-88.06714763 173.54900544 -87.44518319 175.66097782 -86.83251953 177.77587891 C-85.80674127 181.31244287 -84.74488603 184.83166382 -83.61328125 188.3359375 C-83.38519775 189.04532471 -83.15711426 189.75471191 -82.92211914 190.4855957 C-82.29251753 192.43111728 -81.65437783 194.37386996 -81.015625 196.31640625 C-79.92854989 200.25914407 -79.41291043 203.93821807 -79 208 C-78.34 208 -77.68 208 -77 208 C-76.87298706 207.12974686 -76.74597412 206.25949371 -76.6151123 205.36286926 C-76.02953337 202.16146136 -75.2035299 199.27220787 -74.15820312 196.1940918 C-73.78111206 195.07661057 -73.404021 193.95912933 -73.01550293 192.80778503 C-72.60819946 191.61695816 -72.200896 190.42613129 -71.78125 189.19921875 C-71.36331177 187.96710159 -70.94537354 186.73498444 -70.51477051 185.4655304 C-69.63336525 182.86818969 -68.74880207 180.27195384 -67.86181641 177.67651367 C-66.72334228 174.3446959 -65.59168217 171.01061237 -64.46219635 167.67573833 C-63.38416863 164.49500074 -62.30134374 161.31590527 -61.21875 158.13671875 C-60.81144653 156.93577072 -60.40414307 155.73482269 -59.98449707 154.4974823 C-59.41886047 152.84490166 -59.41886047 152.84490166 -58.84179688 151.15893555 C-58.50950073 150.1844194 -58.17720459 149.20990326 -57.83483887 148.20585632 C-57 146 -57 146 -56 145 C-54.43827255 144.91314397 -52.87270656 144.89297781 -51.30859375 144.90234375 C-50.36435547 144.90556641 -49.42011719 144.90878906 -48.44726562 144.91210938 C-47.45404297 144.92048828 -46.46082031 144.92886719 -45.4375 144.9375 C-44.44041016 144.94201172 -43.44332031 144.94652344 -42.41601562 144.95117188 C-39.94395151 144.96299993 -37.47200482 144.97948151 -35 145 C-34.07978302 147.5612706 -33.16382782 150.12394936 -32.25 152.6875 C-31.99734375 153.38939453 -31.7446875 154.09128906 -31.484375 154.81445312 C-29.92037716 159.21319705 -28.48309683 163.63477241 -27.125 168.1015625 C-25.62919789 173.0145482 -24.05892082 177.89456329 -22.421875 182.76171875 C-22.20315735 183.41232773 -21.9844397 184.06293671 -21.75909424 184.73326111 C-20.85937993 187.40494052 -19.95721953 190.07578157 -19.05273438 192.74584961 C-18.38153069 194.72944558 -17.71397814 196.71424068 -17.046875 198.69921875 C-16.45664551 200.44464966 -16.45664551 200.44464966 -15.85449219 202.2253418 C-15 205 -15 205 -15 207 C-14.34 207 -13.68 207 -13 207 C-12.90203125 206.40574219 -12.8040625 205.81148437 -12.703125 205.19921875 C-11.864165 200.54877667 -10.79685953 196.18674753 -9.12011719 191.76367188 C-1.66418333 171.57493201 0.18350302 152.66281809 0.22167969 131.32714844 C0.23020546 128.09211049 0.28657344 124.86339969 0.38574219 121.62988281 C1.79247627 101.28747855 1.79247627 101.28747855 -5.95147705 83.36560059 C-8.29654634 81.07168276 -10.68969851 79.01246768 -13.394104 77.1541748 C-15 76 -15 76 -16.45243835 74.37866211 C-18.4286391 72.6181422 -19.4544961 72.62274983 -22.07250977 72.61523438 C-22.88667862 72.60512329 -23.70084747 72.59501221 -24.53968811 72.58459473 C-25.85228859 72.58912659 -25.85228859 72.58912659 -27.19140625 72.59375 C-28.0924559 72.58291382 -28.99350555 72.57207764 -29.92185974 72.56091309 C-33.78012844 72.51495769 -37.63833251 72.50353704 -41.49682617 72.48876953 C-44.31193354 72.4731261 -47.12646921 72.44013891 -49.94140625 72.40625 C-50.81849747 72.40927124 -51.69558868 72.41229248 -52.59925842 72.41540527 C-55.05688477 72.38476562 -55.05688477 72.38476562 -59 72 C-61.30163882 68.54754176 -61.34490322 67.05261287 -61 63 C-59 61 -59 61 -56.01904297 60.77294922 C-54.77268066 60.78342285 -53.52631836 60.79389648 -52.2421875 60.8046875 C-51.24761032 60.80893234 -51.24761032 60.80893234 -50.23294067 60.81326294 C-48.11344417 60.82446565 -45.99436896 60.84956949 -43.875 60.875 C-42.43880818 60.88502972 -41.00260975 60.89415559 -39.56640625 60.90234375 C-36.04413372 60.924405 -32.52210797 60.95893506 -29 61 C-34.21434434 54.30139749 -39.62028285 48.04269598 -45.68164062 42.10351562 C-49.41218258 38.25872857 -50.95942815 35.59215284 -51 30 C-49.4375 27.5 -49.4375 27.5 -47 26 C-42.81836865 26.06433279 -41.24571419 26.78286487 -38.078125 29.58203125 C-37.12094152 30.64600793 -36.17842425 31.72333748 -35.25 32.8125 C-34.76917969 33.34681641 -34.28835938 33.88113281 -33.79296875 34.43164062 C-31.4170878 37.12187908 -29.38532216 39.67361598 -28 43 C-27.34 43 -26.68 43 -26 43 C-26.01571045 42.34926514 -26.0314209 41.69853027 -26.04760742 41.02807617 C-26.10994649 38.08130576 -26.14898684 35.13467402 -26.1875 32.1875 C-26.21263672 31.16333984 -26.23777344 30.13917969 -26.26367188 29.08398438 C-26.27333984 28.10107422 -26.28300781 27.11816406 -26.29296875 26.10546875 C-26.3086792 25.19949951 -26.32438965 24.29353027 -26.34057617 23.36010742 C-26 21 -26 21 -24.66918945 19.2043457 C-22.08119812 17.3370704 -20.09343343 17.61332082 -17 18 C-15.32250977 19.02124023 -15.32250977 19.02124023 -14 21 C-13.78943307 23.75314849 -13.74991539 26.29030199 -13.83984375 29.03515625 C-13.8516965 30.66600179 -13.8613911 32.29686417 -13.86914062 33.92773438 C-13.89577611 36.48742886 -13.93691202 39.04367927 -14.0168457 41.60229492 C-14.51978093 51.96571737 -14.51978093 51.96571737 -10.78173828 61.30810547 C-8.30385963 63.76103156 -5.7552545 65.87222787 -3 68 C-2.01 69.485 -2.01 69.485 -1 71 C-0.67 47.57 -0.34 24.14 0 0 Z " fill="#2F4890" transform="translate(493,371)"/>
<path d="M0 0 C12.21 0 24.42 0 37 0 C37 60.06 37 120.12 37 182 C24.79 182 12.58 182 0 182 C0 121.94 0 61.88 0 0 Z " fill="#31A657" transform="translate(599,426)"/>
<path d="M0 0 C3.65667605 1.3953106 5.24458051 3.03784789 7.78125 6.0078125 C8.21010498 6.50249023 8.63895996 6.99716797 9.08081055 7.50683594 C10.39536825 9.03423141 11.68566703 10.57892308 12.96875 12.1328125 C14.0515625 13.44378906 14.0515625 13.44378906 15.15625 14.78125 C16.60903168 16.55983933 18.05672233 18.34259604 19.5 20.12890625 C22.36912224 23.61997429 25.31519461 27.03659482 28.28125 30.4453125 C28.83240479 31.07888672 29.38355957 31.71246094 29.95141602 32.36523438 C31.07053159 33.65129705 32.18975376 34.93726698 33.30908203 36.22314453 C57.80625747 64.41039171 57.80625747 64.41039171 58.28125 69.4453125 C57.93569704 73.52283747 57.27056601 75.75681569 54.96875 79.1328125 C50.64356024 82.08180552 47.14912921 82.7803599 41.96875 82.1328125 C36.8338275 79.18512074 32.90707607 75.34229993 28.78125 71.1328125 C28.16572266 70.51664062 27.55019531 69.90046875 26.91601562 69.265625 C23.99045141 66.31153416 21.48157114 63.48324068 18.96875 60.1328125 C18.63875 77.6228125 18.30875 95.1128125 17.96875 113.1328125 C13.96875 108.1328125 13.96875 108.1328125 12.609375 106.17578125 C5.25283515 96.36017331 -8.13269628 92.49223399 -19.03125 88.1328125 C-19.36125 78.8928125 -19.69125 69.6528125 -20.03125 60.1328125 C-22.568125 62.6696875 -25.105 65.2065625 -27.71875 67.8203125 C-32.04296875 72.14453125 -32.04296875 72.14453125 -34.13037109 74.22412109 C-35.28464548 75.38313947 -36.43065554 76.55057565 -37.56103516 77.73291016 C-40.69532445 80.99882315 -42.74972931 81.9603001 -47.28125 82.5703125 C-52.2155864 81.99463992 -54.82928186 79.85035178 -58.03125 76.1328125 C-59.29280717 72.34814098 -59.54707198 70.13043283 -59.03125 66.1328125 C-55.4058847 60.00719526 -50.04911144 54.88628943 -45.2734375 49.65234375 C-42.46738053 46.49919611 -39.86962132 43.20871893 -37.2578125 39.89453125 C-34.10188576 35.98007475 -30.81252002 32.18555181 -27.52636719 28.38037109 C-24.4442326 24.80396855 -21.43013723 21.18566438 -18.46875 17.5078125 C-16.99459322 15.71202151 -15.51513922 13.92056982 -14.03125 12.1328125 C-13.58362305 11.5872168 -13.13599609 11.04162109 -12.67480469 10.47949219 C-11.25189552 8.76171977 -9.8019182 7.07069721 -8.34375 5.3828125 C-7.90409912 4.84446777 -7.46444824 4.30612305 -7.01147461 3.75146484 C-4.69722784 1.12925823 -3.54846621 0.15547403 0 0 Z " fill="#33A75A" transform="translate(512.03125,270.8671875)"/>
<path d="M0 0 C6.27 0 12.54 0 19 0 C21.43786847 5.68835977 23.44983012 11.35844269 25.125 17.3125 C28.82087402 30.39139364 33.50572599 43.17921659 38 56 C40.43727414 53.56272586 40.90455254 51.65222287 41.9375 48.375 C43.01703303 44.97468949 44.14072407 41.62757005 45.40209961 38.28930664 C46.92904358 34.23710479 48.31570961 30.14967257 49.6640625 26.03515625 C50.15096561 24.56182382 50.63794694 23.08851724 51.125 21.61523438 C51.88100743 19.32222623 52.6360376 17.02890439 53.38964844 14.73510742 C54.12436758 12.50092769 54.86272564 10.26797702 55.6015625 8.03515625 C55.82760162 7.34357925 56.05364075 6.65200226 56.28652954 5.93946838 C57.88668454 1.11331546 57.88668454 1.11331546 59 0 C60.34267413 -0.08631874 61.68974322 -0.10706473 63.03515625 -0.09765625 C63.84404297 -0.09443359 64.65292969 -0.09121094 65.48632812 -0.08789062 C66.33646484 -0.07951172 67.18660156 -0.07113281 68.0625 -0.0625 C68.91650391 -0.05798828 69.77050781 -0.05347656 70.65039062 -0.04882812 C72.76695663 -0.03700373 74.88348685 -0.01906769 77 0 C77.22106415 0.67207489 77.4421283 1.34414978 77.66989136 2.03659058 C79.75296051 8.36590322 81.84178018 14.69328488 83.93710136 21.01855278 C85.01415645 24.27060395 86.08896357 27.52336255 87.15869141 30.77783203 C88.38822533 34.51815592 89.62743361 38.25523799 90.8671875 41.9921875 C91.25059296 43.16304901 91.63399841 44.33391052 92.02902222 45.54025269 C92.38924469 46.62122223 92.74946716 47.70219177 93.12060547 48.81591797 C93.59359573 50.24821243 93.59359573 50.24821243 94.07614136 51.70944214 C94.88525597 54.1461089 94.88525597 54.1461089 97 56 C99.48605363 50.34735292 101.45369549 44.62781862 103.125 38.6875 C106.82100829 25.6081312 111.51070508 12.82282102 116 0 C121.94 0 127.88 0 134 0 C133.5771875 1.24652344 133.154375 2.49304688 132.71875 3.77734375 C130.53502458 10.32723847 128.57934638 16.94503999 126.60546875 23.56054688 C125.15529622 28.3742253 123.63227066 33.10966662 121.82177734 37.79907227 C119.92565427 42.87736982 118.27132233 48.04391626 116.5625 53.1875 C116.18029297 54.33025391 115.79808594 55.47300781 115.40429688 56.65039062 C113.10579828 63.55369117 110.90820031 70.47896275 108.81225586 77.4465332 C108 80 108 80 107 82 C100.07 82 93.14 82 86 82 C83.12698641 75.22789654 80.92038638 68.50359693 79.02734375 61.39453125 C78.05565804 57.95390307 78.05565804 57.95390307 76.5390625 54.609375 C74.83433923 50.61149607 73.61420703 46.61351075 72.4375 42.4375 C72.02056153 40.97756995 71.60261069 39.51792861 71.18359375 38.05859375 C70.98620605 37.36878418 70.78881836 36.67897461 70.58544922 35.96826172 C70.04900844 34.16476483 69.451253 32.37980122 68.84765625 30.59765625 C68 28 68 28 68 26 C67.34 26 66.68 26 66 26 C65.86952774 26.8793924 65.73905548 27.75878479 65.60462952 28.66482544 C65.05407584 31.70171423 64.30672641 34.44219246 63.32592773 37.36279297 C62.98565048 38.38339813 62.64537323 39.4040033 62.29478455 40.45553589 C61.92809158 41.54013092 61.56139862 42.62472595 61.18359375 43.7421875 C60.61971703 45.42745041 60.61971703 45.42745041 60.04444885 47.14675903 C58.84636005 50.72427319 57.64201931 54.29964645 56.4375 57.875 C55.62263333 60.30454884 54.80817546 62.73423482 53.99414062 65.1640625 C52.00082852 71.11097509 50.00190787 77.05597577 48 83 C41.07 83 34.14 83 27 83 C24.95183854 77.04616209 22.90608852 71.09159387 20.8659668 65.13500977 C20.17393498 63.11665045 19.48061532 61.09873215 18.78588867 59.08129883 C15.19890622 48.6622155 11.69008747 38.25104442 8.65213013 27.65734863 C7.03823778 22.04445307 5.18383463 16.54911504 3.1875 11.0625 C2.57403292 9.36689224 1.96321001 7.67032468 1.35546875 5.97265625 C1.09403076 5.25343994 0.83259277 4.53422363 0.56323242 3.79321289 C0 2 0 2 0 0 Z " fill="#324A8F" transform="translate(275,661)"/>
<path d="M0 0 C2 2 2 2 2.22705078 4.79736328 C2.21657715 5.95993652 2.20610352 7.12250977 2.1953125 8.3203125 C2.18886719 9.57714844 2.18242188 10.83398438 2.17578125 12.12890625 C2.15902344 13.44761719 2.14226563 14.76632812 2.125 16.125 C2.11496983 17.46483721 2.10584404 18.80468152 2.09765625 20.14453125 C2.07402075 23.42986573 2.04107234 26.71484465 2 30 C2.66 30 3.32 30 4 30 C4.25813477 29.42024414 4.51626953 28.84048828 4.78222656 28.24316406 C7.01290419 24.13420936 10.48933845 21.05740938 13.75 17.75 C14.80574219 16.63238281 14.80574219 16.63238281 15.8828125 15.4921875 C21.16027471 10.13625002 21.16027471 10.13625002 25.39453125 9.44921875 C28 10 28 10 29.9375 11.0625 C31.67740699 14.23527157 30.81954977 16.56294545 30 20 C27.7421875 22.80859375 27.7421875 22.80859375 24.875 25.4375 C23.8705255 26.38343451 22.8679244 27.33136223 21.8671875 28.28125 C20.92101562 29.1784375 19.97484375 30.075625 19 31 C15.43172098 34.83685916 12.13165149 38.8018737 9 43 C9.70608398 42.97905273 10.41216797 42.95810547 11.13964844 42.93652344 C14.34295376 42.85330702 17.54603163 42.80132215 20.75 42.75 C22.41675781 42.69972656 22.41675781 42.69972656 24.1171875 42.6484375 C25.18710937 42.63554687 26.25703125 42.62265625 27.359375 42.609375 C28.34389648 42.58842773 29.32841797 42.56748047 30.34277344 42.54589844 C33.74218309 43.12683394 34.89927038 44.32111039 37 47 C37.47635048 49.79005282 37.47977774 51.23199076 35.97265625 53.64453125 C32.87085196 55.77587004 29.61744848 55.25895114 26 55.125 C24.37372091 55.10826839 22.74741465 55.09402831 21.12109375 55.08203125 C18.56981459 55.04931628 16.02297433 55.00083906 13.47314453 54.90771484 C4.71576419 54.61528914 -2.6319821 54.52345877 -9.64453125 60.26953125 C-16.38046457 68.3180145 -15.19958821 77.72944851 -14.6875 87.6875 C-14.63222823 89.56430876 -14.5820548 91.44127494 -14.53710938 93.31835938 C-14.41682546 97.88284455 -14.22761912 102.43965891 -14 107 C-13.37544922 106.3702124 -12.75089844 105.7404248 -12.10742188 105.09155273 C-9.75371686 102.72064355 -7.39765427 100.352126 -5.04003906 97.98510742 C-4.02673848 96.96682708 -3.01434288 95.94764526 -2.00292969 94.92749023 C3.29337111 89.58661661 8.58949078 84.30722846 14.35522461 79.46484375 C16.07277675 77.93518472 17.53888022 76.28306036 19.0625 74.5625 C22 72 22 72 25.6875 71.4375 C29 72 29 72 30.9375 73.1875 C32.37562888 75.64077868 32.27196666 77.18409904 32 80 C28.73086311 85.21018692 23.67613438 89.34547271 18.9921875 93.26171875 C16.55324515 95.38981551 14.2888027 97.7111973 12 100 C19.92 100.33 27.84 100.66 36 101 C36 105.29 36 109.58 36 114 C34.9483667 113.93079346 33.8967334 113.86158691 32.81323242 113.7902832 C11.10866297 111.83216721 11.10866297 111.83216721 -8.54296875 118.98046875 C-13.3866869 123.4826686 -17.35698335 128.49690191 -21 134 C-21.86818359 135.30324219 -21.86818359 135.30324219 -22.75390625 136.6328125 C-23.79864179 138.20856019 -24.83323579 139.79112088 -25.85351562 141.3828125 C-26.23185547 141.91648437 -26.61019531 142.45015625 -27 143 C-27.33 143 -27.66 143 -28 143 C-28.32632824 132.82933072 -28.57409142 122.6599322 -28.72537041 112.48506832 C-28.79803286 107.75857372 -28.89632347 103.03569338 -29.05615234 98.3112793 C-30.20392927 63.50251423 -30.20392927 63.50251423 -23.07571411 54.98890686 C-20.22596756 52.26075516 -17.3231506 50.13401028 -14 48 C-12.03113034 46.39314071 -11.11422559 45.58390974 -10.62145996 43.06494141 C-10.61940552 42.33452637 -10.61735107 41.60411133 -10.61523438 40.8515625 C-10.60512329 40.02060059 -10.59501221 39.18963867 -10.58459473 38.33349609 C-10.58761597 37.43969238 -10.59063721 36.54588867 -10.59375 35.625 C-10.58291382 34.70412598 -10.57207764 33.78325195 -10.56091309 32.83447266 C-10.52660338 29.88957689 -10.51104641 26.94506955 -10.5 24 C-10.48546418 20.12462438 -10.45184963 16.25012066 -10.40625 12.375 C-10.40927124 11.48119629 -10.41229248 10.58739258 -10.41540527 9.66650391 C-10.40529419 8.83554199 -10.39518311 8.00458008 -10.38476562 7.1484375 C-10.38271118 6.41802246 -10.38065674 5.68760742 -10.37854004 4.93505859 C-9.27381116 -0.71220429 -4.90873149 -0.44624832 0 0 Z " fill="#36AA5F" transform="translate(555,378)"/>
<path d="M0 0 C6.27 0 12.54 0 19 0 C23.01632317 7.9148656 26.80695233 15.87458804 30.375 24 C31.4113317 26.34510805 32.4477978 28.69015671 33.484375 31.03515625 C34.04626959 32.30873638 34.60811703 33.58233731 35.16992188 34.85595703 C38.28348249 41.91055801 41.41430146 48.95751468 44.54473877 56.00463867 C45.61201692 58.40826076 46.67790869 60.81249409 47.74365234 63.21679688 C48.40456999 64.70575243 49.06553767 66.19468578 49.7265625 67.68359375 C50.0281427 68.3647374 50.3297229 69.04588104 50.64044189 69.74766541 C51.77074336 72.29096484 52.8994633 74.81056147 54.20458984 77.26977539 C55 79 55 79 55 82 C48.73 82 42.46 82 36 82 C35.01 79.751875 34.02 77.50375 33 75.1875 C32.68675781 74.48391357 32.37351562 73.78032715 32.05078125 73.05541992 C30.80810092 70.19404984 30 68.15104967 30 65 C16.47 65 2.94 65 -11 65 C-11.33 66.98 -11.66 68.96 -12 71 C-13.49684191 74.75928166 -15.26028516 78.34213803 -17 82 C-22.94 82 -28.88 82 -35 82 C-33.05432821 75.92366737 -30.85821822 70.1018739 -28.26171875 64.27734375 C-27.90389816 63.46567749 -27.54607758 62.65401123 -27.17741394 61.81774902 C-26.01778623 59.18935741 -24.85265547 56.56344518 -23.6875 53.9375 C-22.88318961 52.11681069 -22.07932025 50.29592649 -21.27587891 48.47485352 C-19.64583583 44.78076228 -18.01411804 41.08741776 -16.38134766 37.39453125 C-13.16678042 30.11874705 -9.97910731 22.83124049 -6.79458618 15.54226685 C-5.62574835 12.86700794 -4.45597554 10.19215835 -3.28617859 7.51731873 C-2.19052908 5.01165803 -1.09530242 2.50581244 0 0 Z " fill="#30498F" transform="translate(446,661)"/>
<path d="M0 0 C20.79 0 41.58 0 63 0 C63 4.95 63 9.9 63 15 C48.15 15 33.3 15 18 15 C18 21.27 18 27.54 18 34 C31.2 34 44.4 34 58 34 C58 38.62 58 43.24 58 48 C45.13 48 32.26 48 19 48 C19 54.6 19 61.2 19 68 C34.18 68 49.36 68 65 68 C65 72.95 65 77.9 65 83 C43.55 83 22.1 83 0 83 C0 55.61 0 28.22 0 0 Z " fill="#385094" transform="translate(591,661)"/>
<path d="M0 0 C12.21 0 24.42 0 37 0 C37 30.69 37 61.38 37 93 C24.79 93 12.58 93 0 93 C0 62.31 0 31.62 0 0 Z " fill="#30A759" transform="translate(540,515)"/>
<path d="M0 0 C20.79 0 41.58 0 63 0 C63 4.95 63 9.9 63 15 C48.15 15 33.3 15 18 15 C18 21.27 18 27.54 18 34 C30.87 34 43.74 34 57 34 C57 38.62 57 43.24 57 48 C44.13 48 31.26 48 18 48 C18 54.6 18 61.2 18 68 C33.51 68 49.02 68 65 68 C65 72.95 65 77.9 65 83 C43.55 83 22.1 83 0 83 C0 55.61 0 28.22 0 0 Z " fill="#364E92" transform="translate(675,661)"/>
<path d="M0 0 C6.27 0 12.54 0 19 0 C19 22.44 19 44.88 19 68 C32.86 68 46.72 68 61 68 C61 72.95 61 77.9 61 83 C40.87 83 20.74 83 0 83 C0 55.61 0 28.22 0 0 Z " fill="#374F91" transform="translate(515,661)"/>
<path d="M0 0 C2.55807392 3.12570081 4.12453675 6.2609669 5.69921875 9.97265625 C6.42915039 11.69258789 6.42915039 11.69258789 7.17382812 13.44726562 C7.67333984 14.64029297 8.17285156 15.83332031 8.6875 17.0625 C9.19861328 18.25939453 9.70972656 19.45628906 10.23632812 20.68945312 C14 29.61875209 14 29.61875209 14 33 C5.42 33 -3.16 33 -12 33 C-11.20072052 28.20432314 -10.31387872 24.89556932 -8.49609375 20.5078125 C-7.75649414 18.70957031 -7.75649414 18.70957031 -7.00195312 16.875 C-6.48060478 15.62494326 -5.95911869 14.37494396 -5.4375 13.125 C-4.91153536 11.85179948 -4.3861391 10.578364 -3.86132812 9.3046875 C-2.57978638 6.20076989 -1.29251196 3.09936178 0 0 Z " fill="#F2F3F5" transform="translate(455,679)"/>
<path d="M0 0 C4.05345217 0.04462516 6.10029983 1.84684122 8.95727539 4.60473633 C12.1082774 7.84097078 15.04687385 11.03906078 17.5625 14.8125 C17.10966981 21.26533019 17.10966981 21.26533019 14.5625 23.8125 C11.5 24.4375 11.5 24.4375 7.5625 23.8125 C4.20800892 21.48016866 1.40419135 18.73647971 -1.4375 15.8125 C-2.283125 14.9875 -3.12875 14.1625 -4 13.3125 C-6.1322714 9.60420192 -5.85478674 7.05491517 -5.4375 2.8125 C-3.4375 0.8125 -3.4375 0.8125 0 0 Z " fill="#374F96" transform="translate(421.4375,398.1875)"/>
<path d="M0 0 C1.63001953 0.02707031 1.63001953 0.02707031 3.29296875 0.0546875 C4.54013672 0.08949219 4.54013672 0.08949219 5.8125 0.125 C6.60326208 3.12989589 7.09947313 5.09052492 6.8125 8.125 C3.51155156 13.43846217 -2.28730687 17.24410352 -8.1875 19.125 C-11.11100687 19.57873652 -13.19133274 19.48660639 -16.1875 19.125 C-18.51936869 15.62719696 -18.71509934 14.24131962 -18.1875 10.125 C-16.32421875 7.859375 -16.32421875 7.859375 -13.875 5.875 C-13.07449219 5.20984375 -12.27398437 4.5446875 -11.44921875 3.859375 C-7.27109749 0.65542709 -5.24503218 -0.11279639 0 0 Z " fill="#314C95" transform="translate(453.1875,449.875)"/>
<path d="M0 0 C2 2 2 2 2.5625 4.625 C1.70619095 9.76285433 -1.44778728 12.36852898 -5 16 C-5.50144531 16.6084375 -6.00289062 17.216875 -6.51953125 17.84375 C-8.4868242 20.14163488 -10.10247503 21.84688322 -13.15234375 22.3671875 C-15.375 22.375 -15.375 22.375 -19 22 C-20.62769928 19.51057757 -21.01113793 18.18701359 -20.83203125 15.1796875 C-19.83146164 11.35591443 -18.32957026 9.60336538 -15.625 6.75 C-14.83351563 5.89921875 -14.04203125 5.0484375 -13.2265625 4.171875 C-8.63874378 -0.30326046 -6.12646203 -0.38898172 0 0 Z " fill="#39AC62" transform="translate(609,390)"/>
<path d="M0 0 C4.29 0 8.58 0 13 0 C13 0.33 13 0.66 13 1 C11.35 1 9.7 1 8 1 C8 1.99 8 2.98 8 4 C2.25 2.25 2.25 2.25 0 0 Z " fill="#485F9E" transform="translate(343,487)"/>
<path d="M0 0 C0.99 0.33 1.98 0.66 3 1 C0.69 3.31 -1.62 5.62 -4 8 C-4.99 7.67 -5.98 7.34 -7 7 C-4.69 4.69 -2.38 2.38 0 0 Z " fill="#41B66B" transform="translate(558,468)"/>
<path d="M0 0 C0.66 0.33 1.32 0.66 2 1 C0.76110404 2.48847937 -0.4915672 3.96550105 -1.75 5.4375 C-2.79414062 6.67306641 -2.79414062 6.67306641 -3.859375 7.93359375 C-6.01343015 10.01296451 -7.08310781 10.63867326 -10 11 C-6.79239749 7.19364503 -3.59253891 3.45436433 0 0 Z " fill="#3BB466" transform="translate(544,423)"/>
<path d="M0 0 C0.556875 0.268125 1.11375 0.53625 1.6875 0.8125 C0.6975 0.8125 -0.2925 0.8125 -1.3125 0.8125 C-1.56 1.410625 -1.8075 2.00875 -2.0625 2.625 C-3.47620012 5.09897521 -4.96305383 6.24620255 -7.3125 7.8125 C-7.3125 4.8125 -7.3125 4.8125 -5.0625 2.0625 C-2.3125 -0.1875 -2.3125 -0.1875 0 0 Z " fill="#48B26E" transform="translate(511.3125,271.1875)"/>
<path d="M0 0 C0.66 0.33 1.32 0.66 2 1 C1.75 4.3125 1.75 4.3125 1 8 C-0.32 8.99 -1.64 9.98 -3 11 C-2.01 7.37 -1.02 3.74 0 0 Z " fill="#5067A1" transform="translate(427,543)"/>
<path d="M0 0 C3.26954202 0.56371414 4.82575883 1.49962266 7 4 C6.34 4.66 5.68 5.32 5 6 C3.35 4.02 1.7 2.04 0 0 Z " fill="#395299" transform="translate(475,443)"/>
</svg>
