<?xml version="1.0" encoding="UTF-8"?>
<svg version="1.1" xmlns="http://www.w3.org/2000/svg" width="1024" height="1024">
<path d="M0 0 C337.92 0 675.84 0 1024 0 C1024 337.92 1024 675.84 1024 1024 C686.08 1024 348.16 1024 0 1024 C0 686.08 0 348.16 0 0 Z " fill="#FDFEFE" transform="translate(0,0)"/>
<path d="M0 0 C0.33 0 0.66 0 1 0 C-0.08087683 16.51132539 -5.12938308 32.4696303 -13 47 C-11.07573943 45.29963138 -9.16085529 43.59032591 -7.25 41.875 C-6.44175781 41.1634375 -6.44175781 41.1634375 -5.6171875 40.4375 C-2.06954718 37.23597093 0.4412614 34.02941546 3 30 C3.33 30 3.66 30 4 30 C4.66444614 47.57090892 2.28517607 64.60674923 -10 78 C-14.67051354 82.65423998 -18.99598544 86.19180955 -25 89 C-24.52691406 89.79019531 -24.05382812 90.58039063 -23.56640625 91.39453125 C-14.29796769 107.20327149 -6.72689653 123.25500446 -2 141 C-1.68458252 142.10529053 -1.68458252 142.10529053 -1.36279297 143.23291016 C2.19052749 156.04793367 2.39144968 168.92060394 2.4375 182.125 C2.44689606 183.3851442 2.44689606 183.3851442 2.45648193 184.67074585 C2.53159114 200.62289144 1.19449884 216.55688639 -4.1875 231.6875 C-4.48140625 232.54980225 -4.7753125 233.41210449 -5.078125 234.30053711 C-7.38113848 240.8247382 -10.22376821 246.98916323 -13.59838867 253.02807617 C-15.49767215 256.31847243 -15.49767215 256.31847243 -15.78198242 259.99829102 C-14.85175333 262.37948 -13.79012795 263.47367699 -11.89453125 265.1796875 C-11.24782471 265.77120605 -10.60111816 266.36272461 -9.93481445 266.97216797 C-8.8842688 267.91406982 -8.8842688 267.91406982 -7.8125 268.875 C-6.34231881 270.22761273 -4.87359602 271.58181213 -3.40625 272.9375 C-2.66503906 273.61941406 -1.92382812 274.30132812 -1.16015625 275.00390625 C14.53737737 289.50922212 27.26968839 305.50350147 38 324 C38.38639648 324.6590332 38.77279297 325.31806641 39.17089844 325.99707031 C59.20551956 360.57484474 66.04489029 401.95548388 56.00390625 440.859375 C48.08539459 467.27268033 29.34232259 489.33203976 5.62890625 502.93359375 C-15.02222588 513.8334535 -40.97437909 519.45976591 -63.9453125 513.10546875 C-73.41734674 509.67760981 -81.8946102 505.25985479 -89 498 C-85.91578909 494.91578909 -82.26835353 495.30162739 -78.04296875 494.85546875 C-72.10760479 493.89846646 -66.53820937 491.24857667 -61 489 C-61.79583496 489.02094727 -62.59166992 489.04189453 -63.41162109 489.06347656 C-67.06594888 489.14733768 -70.72007333 489.19888214 -74.375 489.25 C-75.62667969 489.28351563 -76.87835937 489.31703125 -78.16796875 489.3515625 C-89.41555838 489.46933831 -98.77445228 487.02492461 -107 479 C-112 472.47931873 -112 472.47931873 -112 469 C-111.20827393 468.73783691 -110.41654785 468.47567383 -109.60083008 468.20556641 C-106.64648314 467.22648565 -103.69259826 466.24602634 -100.73901367 465.26464844 C-98.83872947 464.63370881 -96.93792285 464.00434331 -95.03710938 463.375 C-93.2340332 462.77558594 -93.2340332 462.77558594 -91.39453125 462.1640625 C-90.28956299 461.79748535 -89.18459473 461.4309082 -88.04614258 461.05322266 C-85.32580352 460.11264859 -82.66105505 459.09560118 -80 458 C-80.98806641 458.01571045 -81.97613281 458.0314209 -82.99414062 458.04760742 C-86.69164747 458.10227853 -90.38911924 458.13648392 -94.08691406 458.16479492 C-95.68137641 458.17979745 -97.27579808 458.20020621 -98.87011719 458.22631836 C-101.17393077 458.26308134 -103.4771946 458.27981155 -105.78125 458.29296875 C-106.48366821 458.30845261 -107.18608643 458.32393646 -107.90979004 458.33988953 C-113.20463861 458.34165364 -117.17796365 457.22879006 -122 455 C-124 452 -124 452 -123.85327148 449.52172852 C-121.38673066 442.23220056 -111.73740222 438.61239022 -105.25741577 435.38948059 C-103.32036346 434.44103282 -101.37903458 433.50173251 -99.4375 432.5625 C-98.08899721 431.90022976 -96.74101796 431.23689247 -95.39355469 430.57250977 C-92.76933191 429.28031952 -90.14277194 427.99315049 -87.51318359 426.71191406 C-56.57026909 411.63396295 -32.6148566 394.66872792 -21 361 C-14.55117941 339.43366402 -14.83808524 317.32382951 -25 297 C-24.67515625 298.26263672 -24.67515625 298.26263672 -24.34375 299.55078125 C-18.12164899 327.29098158 -21.27926854 355.72907471 -35.37890625 380.44921875 C-42.69947861 391.96809525 -52.38134204 401.83055034 -64 409 C-64.33 409 -64.66 409 -65 409 C-65.0093457 408.24904053 -65.01869141 407.49808105 -65.02832031 406.72436523 C-65.08227564 403.29476356 -65.16587547 399.86648892 -65.25 396.4375 C-65.26417969 395.25607422 -65.27835938 394.07464844 -65.29296875 392.85742188 C-65.50157468 383.6682396 -65.50157468 383.6682396 -70 376 C-77.75712263 370.48055872 -87.44224543 371.39522945 -96.50390625 371.390625 C-98.19499786 371.37562459 -99.88607491 371.35889356 -101.57713318 371.34051514 C-106.00099402 371.29703796 -110.4246573 371.2768864 -114.84869385 371.26177979 C-119.37385648 371.24213747 -123.89880795 371.20017571 -128.42382812 371.16015625 C-137.28248663 371.08506718 -146.14109739 371.03464715 -155 371 C-155.8057012 368.59400524 -156.61050408 366.18771622 -157.41479492 363.78125 C-157.64184868 363.10352539 -157.86890244 362.42580078 -158.10283661 361.72753906 C-159.623225 357.17545936 -161.05644494 352.63137998 -162.3125 348 C-162.63863281 346.824375 -162.96476562 345.64875 -163.30078125 344.4375 C-164.8980627 336.58494317 -163.4071188 331.79364038 -160 324.8125 C-159.24324423 323.23890818 -158.49297366 321.66217702 -157.75 320.08203125 C-157.24726562 319.04912964 -157.24726562 319.04912964 -156.734375 317.99536133 C-155.57708552 314.85090425 -155.8787736 312.38590688 -156.86547852 309.24487305 C-158.58880451 305.77589291 -160.06189377 303.55562467 -163 301 C-169.02085614 299.0249115 -175.69012598 299.6453952 -181.9375 299.8125 C-183.68813828 299.81946433 -185.43880375 299.82146713 -187.18945312 299.81835938 C-191.4620892 299.82153579 -195.72876959 299.89240194 -200 300 C-200.30196289 300.78318604 -200.60392578 301.56637207 -200.91503906 302.37329102 C-202.23788267 305.57591801 -204.10719357 308.07748151 -206.171875 310.83984375 C-207.43424151 314.13271488 -206.37826172 315.79937 -205 319 C-204.3382453 320.33449358 -203.66561573 321.66362905 -202.984375 322.98828125 C-202.62085938 323.69533203 -202.25734375 324.40238281 -201.8828125 325.13085938 C-201.12902645 326.58254734 -200.35814764 328.02548964 -199.5703125 329.45898438 C-196.6080246 335.33560946 -197.06951167 338.84929967 -199 345 C-199.41590777 346.67862616 -199.8219364 348.35972664 -200.21875 350.04296875 C-200.64459856 351.75811955 -201.07169003 353.47296221 -201.5 355.1875 C-201.71269531 356.05052734 -201.92539062 356.91355469 -202.14453125 357.80273438 C-202.45970703 359.06633789 -202.45970703 359.06633789 -202.78125 360.35546875 C-202.96751953 361.10465576 -203.15378906 361.85384277 -203.34570312 362.62573242 C-204.12541082 365.45508217 -205.06454739 368.21871914 -206 371 C-207.4612606 371.00546844 -207.4612606 371.00546844 -208.95204163 371.01104736 C-218.14764949 371.048042 -227.34292385 371.10586342 -236.53827763 371.18390274 C-241.2653597 371.22335596 -245.99225609 371.25555499 -250.71948242 371.27099609 C-255.2843946 371.28617691 -259.84879622 371.32064762 -264.41348076 371.36830902 C-266.15207918 371.38310815 -267.8907505 371.39104017 -269.6294117 371.39188385 C-272.07127988 371.39425975 -274.51174421 371.42138743 -276.95336914 371.45410156 C-277.66691055 371.4490712 -278.38045197 371.44404083 -279.11561584 371.43885803 C-284.56484795 371.55128507 -287.60385856 372.99924211 -292 376 C-297.06195021 382.16201456 -296.6573256 388.71603738 -296.75 396.4375 C-296.79447266 398.25024414 -296.79447266 398.25024414 -296.83984375 400.09960938 C-296.91020413 403.06647208 -296.96307021 406.03256424 -297 409 C-303.5552826 405.42584836 -308.63172431 401.2033517 -314 396 C-314.76699219 395.25878906 -315.53398437 394.51757812 -316.32421875 393.75390625 C-332.97276227 376.52426174 -340.64224589 352.32331464 -340.375 328.75 C-340.36629883 326.87115112 -340.36629883 326.87115112 -340.35742188 324.9543457 C-340.22007033 315.07202948 -339.16646126 305.63301522 -337 296 C-347.0703197 317.37455208 -347.83663847 340.90098229 -340.23632812 363.24511719 C-338.44630197 367.97774029 -336.31005256 372.50193539 -334 377 C-333.46503906 378.06734375 -332.93007813 379.1346875 -332.37890625 380.234375 C-328.05060658 388.24743818 -322.37755766 394.60465278 -316 401 C-314.84564453 402.18916016 -314.84564453 402.18916016 -313.66796875 403.40234375 C-309.01957826 407.90819415 -304.03457052 411.38311807 -298.4765625 414.63671875 C-297.74195801 415.0675325 -297.00735352 415.49834625 -296.25048828 415.94221497 C-286.22486987 421.71792547 -275.72326049 426.55176858 -265.26220703 431.47631836 C-243.13365912 441.92249859 -243.13365912 441.92249859 -239 447 C-238.29296875 449.69995117 -238.29296875 449.69995117 -238 452 C-243.87283433 457.18191264 -249.11264469 458.31024295 -256.8046875 458.1953125 C-257.5286673 458.1924826 -258.25264709 458.18965271 -258.99856567 458.18673706 C-261.2908849 458.17562087 -263.58280063 458.15053312 -265.875 458.125 C-267.43749432 458.1149591 -268.99999482 458.10583519 -270.5625 458.09765625 C-274.37515338 458.07570973 -278.18750848 458.04124013 -282 458 C-274.1553837 461.49981893 -266.47460731 464.7549258 -258.125 466.875 C-257.32964844 467.08640625 -256.53429687 467.2978125 -255.71484375 467.515625 C-253.81238213 468.01989194 -251.90656339 468.51147015 -250 469 C-252.29778418 476.44192263 -255.88967462 480.99482995 -262.62231445 484.82324219 C-271.15012899 489.0438055 -279.84080116 489.40104496 -289.1875 489.1875 C-290.33025391 489.17396484 -291.47300781 489.16042969 -292.65039062 489.14648438 C-295.43410963 489.1115423 -298.21678664 489.06249011 -301 489 C-291.35300415 493.69091283 -282.55855734 495.16182069 -272 496 C-280.4155501 507.02185852 -293.97815817 512.26163628 -307.35546875 514.58203125 C-334.16726163 517.65690996 -360.50221243 510.4916941 -381.6875 493.6875 C-404.34115879 474.27007818 -419.02945686 448.9826821 -422 419 C-423.07095552 401.20410115 -423.12046821 383.21036049 -418 366 C-417.76394043 365.19916992 -417.52788086 364.39833984 -417.28466797 363.57324219 C-405.49944787 324.86665859 -379.70678189 285.22022752 -346 262 C-346.54394846 257.32064853 -347.85494601 254.04497436 -350.125 249.9375 C-353.3069314 243.90191187 -355.66100026 237.71997352 -357.8125 231.25 C-358.10205566 230.38753662 -358.39161133 229.52507324 -358.68994141 228.63647461 C-367.76395259 200.65337773 -366.92438847 166.09283204 -359 138 C-358.75362793 137.09588379 -358.50725586 136.19176758 -358.25341797 135.26025391 C-354.07298558 120.30395517 -347.58607377 106.12404728 -339.109375 93.09375 C-338.74328125 92.4028125 -338.3771875 91.711875 -338 91 C-339.19176502 87.42470494 -339.99365087 87.13942422 -343.125 85.25 C-355.34273515 77.35695523 -361.36477932 66.09174807 -364.69140625 52.08984375 C-366.08181084 44.71000398 -366.21750277 37.4917622 -366 30 C-362.7859041 33.15093681 -359.86713861 36.45694143 -356.9765625 39.90234375 C-354.49680736 42.53402065 -351.80982918 44.72443411 -349 47 C-349.34780518 46.22136597 -349.34780518 46.22136597 -349.70263672 45.42700195 C-350.76108379 43.05594299 -351.81805395 40.68422843 -352.875 38.3125 C-353.42220703 37.08756836 -353.42220703 37.08756836 -353.98046875 35.83789062 C-354.99416163 33.56168934 -355.99806973 31.28139683 -357 29 C-357.3815625 28.14664063 -357.763125 27.29328125 -358.15625 26.4140625 C-359.33842062 23.03174101 -359.98522294 19.57800964 -360.625 16.0625 C-360.7590625 15.37220703 -360.893125 14.68191406 -361.03125 13.97070312 C-361.78230339 9.92804329 -362.14146344 6.10886988 -362 2 C-358.10818562 5.16775589 -354.55106834 8.44893166 -351 12 C-337.33048245 25.30979341 -319.33052106 33.48592462 -301 38 C-299.93136719 38.27585938 -298.86273438 38.55171875 -297.76171875 38.8359375 C-282.29333861 42.65109353 -266.94327076 45.33553704 -251.62109375 40.1484375 C-229.08059776 32.99967178 -205.90773759 31.81274438 -182.44580078 31.81469727 C-179.50408607 31.81250305 -176.56274303 31.79424421 -173.62109375 31.77539062 C-162.56127854 31.74199466 -151.93120696 32.27575044 -141 34 C-139.96681641 34.15138428 -138.93363281 34.30276855 -137.86914062 34.45874023 C-135.07313685 34.87884686 -132.28667812 35.33466974 -129.5 35.8125 C-128.52369629 35.9784668 -127.54739258 36.14443359 -126.54150391 36.31542969 C-120.63262603 37.37388111 -115.04628094 38.79742008 -109.375 40.75 C-85.72176479 48.65306029 -54.32107022 38.30354219 -32.79223633 27.63256836 C-25.5392654 23.84226396 -19.15204473 19.41908627 -13 14 C-11.93826784 13.18649689 -10.87586401 12.37386889 -9.8125 11.5625 C-6.54965566 8.58968627 -4.03542664 5.33491508 -1.41796875 1.79296875 C-0.95003906 1.20128906 -0.48210937 0.60960937 0 0 Z " fill="#195297" transform="translate(693,193)"/>
<path d="M0 0 C1.13501953 0.92232422 1.13501953 0.92232422 2.29296875 1.86328125 C3.12183594 2.52972656 3.95070313 3.19617188 4.8046875 3.8828125 C15.7746144 13.20641041 23.15340045 24.52684517 28.29296875 37.86328125 C28.29296875 38.85328125 28.29296875 39.84328125 28.29296875 40.86328125 C28.95296875 40.86328125 29.61296875 40.86328125 30.29296875 40.86328125 C30.43025391 39.60257812 30.43025391 39.60257812 30.5703125 38.31640625 C31.39808622 34.36099022 32.9350833 31.12539862 34.85546875 27.61328125 C35.21189453 26.95577881 35.56832031 26.29827637 35.93554688 25.62084961 C39.14678091 19.85374982 42.87268537 14.77276595 47.29296875 9.86328125 C48.17855469 8.83847656 48.17855469 8.83847656 49.08203125 7.79296875 C61.51992035 -5.70346411 80.64143866 -14.5242657 98.8828125 -15.421875 C121.30031903 -16.05126453 141.34800437 -8.94604109 157.93798828 6.32495117 C171.88195631 19.90149222 179.4594789 39.45521393 179.73046875 58.73828125 C179.57452129 76.64029822 172.35675581 94.58536573 160.29296875 107.86328125 C159.63941406 108.60835938 158.98585938 109.3534375 158.3125 110.12109375 C146.32334951 123.00560885 128.55582162 131.53183274 110.9140625 132.234375 C86.18400195 132.6563487 86.18400195 132.6563487 74.29296875 126.86328125 C73.308125 126.3940625 72.32328125 125.92484375 71.30859375 125.44140625 C64.91915697 122.15843597 59.07822183 118.10496355 53.29296875 113.86328125 C53.02613281 114.57097656 52.75929688 115.27867187 52.484375 116.0078125 C48.87897422 124.64895338 43.78573744 131.8890196 37.375 138.66015625 C35.59537293 140.54328883 33.96256315 142.45926532 32.35546875 144.48828125 C31.67484375 145.27203125 30.99421875 146.05578125 30.29296875 146.86328125 C28.29296875 146.86328125 28.29296875 146.86328125 26.8125 145.39453125 C26.24917969 144.72421875 25.68585938 144.05390625 25.10546875 143.36328125 C22.38507703 140.13857932 22.38507703 140.13857932 19.55859375 137.0078125 C13.76640358 130.77722262 8.00197654 122.99030462 5.29296875 114.86328125 C1.55563924 116.22048678 -1.48736665 117.94311724 -4.76953125 120.17578125 C-17.88948129 128.63515923 -31.97009317 132.45373215 -47.51953125 132.36328125 C-48.65592041 132.35828613 -49.79230957 132.35329102 -50.96313477 132.34814453 C-60.06276623 132.15996132 -67.41558733 130.8011976 -75.70703125 126.86328125 C-77.18816406 126.17685547 -77.18816406 126.17685547 -78.69921875 125.4765625 C-85.37108608 122.10366558 -91.08843344 117.76625731 -96.70703125 112.86328125 C-97.32191406 112.34378906 -97.93679688 111.82429688 -98.5703125 111.2890625 C-112.78718025 98.31412803 -119.2482756 78.85159476 -121.0625 60.2109375 C-121.81574569 41.13549943 -114.2756749 22.9814837 -101.70703125 8.86328125 C-101.14113281 8.22648437 -100.57523437 7.5896875 -99.9921875 6.93359375 C-73.98134496 -20.60729835 -29.78184617 -22.49851361 0 0 Z " fill="#FCFDFD" transform="translate(482.70703125,312.13671875)"/>
<path d="M0 0 C5.91066751 3.29342185 10.25021558 7.86594935 15 12.625 C15.46709381 13.09263763 15.93418762 13.56027527 16.41543579 14.04208374 C29.30469244 27.00031853 39.83647062 41.20426043 49 57 C49.38639648 57.6590332 49.77279297 58.31806641 50.17089844 58.99707031 C70.20551956 93.57484474 77.04489029 134.95548388 67.00390625 173.859375 C59.08539459 200.27268033 40.34232259 222.33203976 16.62890625 235.93359375 C-4.02222588 246.8334535 -29.97437909 252.45976591 -52.9453125 246.10546875 C-62.41734674 242.67760981 -70.8946102 238.25985479 -78 231 C-74.91578909 227.91578909 -71.26835353 228.30162739 -67.04296875 227.85546875 C-61.10760479 226.89846646 -55.53820937 224.24857667 -50 222 C-50.79583496 222.02094727 -51.59166992 222.04189453 -52.41162109 222.06347656 C-56.06594888 222.14733768 -59.72007333 222.19888214 -63.375 222.25 C-64.62667969 222.28351563 -65.87835937 222.31703125 -67.16796875 222.3515625 C-78.41555838 222.46933831 -87.77445228 220.02492461 -96 212 C-101 205.47931873 -101 205.47931873 -101 202 C-100.20827393 201.73783691 -99.41654785 201.47567383 -98.60083008 201.20556641 C-95.64648314 200.22648565 -92.69259826 199.24602634 -89.73901367 198.26464844 C-87.83872947 197.63370881 -85.93792285 197.00434331 -84.03710938 196.375 C-82.83505859 195.97539063 -81.63300781 195.57578125 -80.39453125 195.1640625 C-78.73707886 194.61419678 -78.73707886 194.61419678 -77.04614258 194.05322266 C-74.32580352 193.11264859 -71.66105505 192.09560118 -69 191 C-70.48209961 191.02356567 -70.48209961 191.02356567 -71.99414062 191.04760742 C-75.69164747 191.10227853 -79.38911924 191.13648392 -83.08691406 191.16479492 C-84.68137641 191.17979745 -86.27579808 191.20020621 -87.87011719 191.22631836 C-90.17393077 191.26308134 -92.4771946 191.27981155 -94.78125 191.29296875 C-95.48366821 191.30845261 -96.18608643 191.32393646 -96.90979004 191.33988953 C-102.20463861 191.34165364 -106.17796365 190.22879006 -111 188 C-113 185 -113 185 -112.85327148 182.52172852 C-110.38673066 175.23220056 -100.73740222 171.61239022 -94.25741577 168.38948059 C-92.32036346 167.44103282 -90.37903458 166.50173251 -88.4375 165.5625 C-87.08899721 164.90022976 -85.74101796 164.23689247 -84.39355469 163.57250977 C-81.76933191 162.28031952 -79.14277194 160.99315049 -76.51318359 159.71191406 C-45.57026909 144.63396295 -21.6148566 127.66872792 -10 94 C-3.55117941 72.43366402 -3.83808524 50.32382951 -14 30 C-13.7834375 30.84175781 -13.566875 31.68351562 -13.34375 32.55078125 C-6.93296781 61.13218517 -10.32861934 91.04343134 -26 116 C-27.57798376 118.12882849 -29.20436391 120.04592543 -31 122 C-33 121 -33 121 -33.65087891 119.26025391 C-33.84085449 118.50663574 -34.03083008 117.75301758 -34.2265625 116.9765625 C-34.44916748 116.13029297 -34.67177246 115.28402344 -34.90112305 114.41210938 C-35.25944214 113.03249023 -35.25944214 113.03249023 -35.625 111.625 C-41.41742658 90.51466367 -50.6023217 68.0003663 -64.734375 51.05859375 C-66 49 -66 49 -65.77148438 47.00170898 C-64.43144347 43.5248117 -60.88445674 42.31790069 -57.75 40.625 C-43.44757976 32.54567687 -29.92909468 23.27038326 -16.6875 13.5625 C-15.92969238 13.00788086 -15.17188477 12.45326172 -14.39111328 11.88183594 C-9.37439346 8.15589611 -4.64359382 4.18056857 0 0 Z " fill="#1A5297" transform="translate(682,460)"/>
<path d="M0 0 C3.01756361 1.13829802 4.90298364 2.94316219 7.3203125 5.078125 C20.81444857 16.64905608 35.62462155 26.20180605 50.80859375 35.3828125 C54.22057175 37.44898576 57.61391488 39.54494483 61.0078125 41.640625 C62.73679072 42.70343163 64.46587 43.76607404 66.1953125 44.828125 C65.5652173 48.76857108 63.6134145 51.38113271 61.3828125 54.640625 C48.22862581 74.65178134 38.64559971 96.48179165 33.1953125 119.828125 C32.2053125 119.828125 31.2153125 119.828125 30.1953125 119.828125 C21.16566122 110.14256685 16.50032768 96.38718269 13.1953125 83.828125 C13.01653564 83.200271 12.83775879 82.57241699 12.65356445 81.92553711 C10.84812865 74.95229264 10.85289715 68.06049251 10.8828125 60.890625 C10.88410156 59.61550049 10.88539063 58.34037598 10.88671875 57.02661133 C10.9876789 47.0435456 12.00714432 37.55765851 14.1953125 27.828125 C4.1249928 49.20267708 3.35867403 72.72910729 10.95898438 95.07324219 C12.74901053 99.80586529 14.88525994 104.33006039 17.1953125 108.828125 C17.99775391 110.42914062 17.99775391 110.42914062 18.81640625 112.0625 C23.14470592 120.07556318 28.81775484 126.43277778 35.1953125 132.828125 C35.96488281 133.62089844 36.73445313 134.41367187 37.52734375 135.23046875 C42.17573424 139.73631915 47.16074198 143.21124307 52.71875 146.46484375 C53.45335449 146.8956575 54.18795898 147.32647125 54.94482422 147.77033997 C64.97044263 153.54605047 75.47205201 158.37989358 85.93310547 163.30444336 C108.06165338 173.75062359 108.06165338 173.75062359 112.1953125 178.828125 C112.90234375 181.52807617 112.90234375 181.52807617 113.1953125 183.828125 C107.32247817 189.01003764 102.08266781 190.13836795 94.390625 190.0234375 C93.3046553 190.01919266 93.3046553 190.01919266 92.19674683 190.01486206 C89.9044276 190.00374587 87.61251187 189.97865812 85.3203125 189.953125 C83.75781818 189.9430841 82.19531768 189.93396019 80.6328125 189.92578125 C76.82015912 189.90383473 73.00780402 189.86936513 69.1953125 189.828125 C77.0399288 193.32794393 84.72070519 196.5830508 93.0703125 198.703125 C93.86566406 198.91453125 94.66101563 199.1259375 95.48046875 199.34375 C97.38293037 199.84801694 99.28874911 200.33959515 101.1953125 200.828125 C98.89752832 208.27004763 95.30563788 212.82295495 88.57299805 216.65136719 C80.04518351 220.8719305 71.35451134 221.22916996 62.0078125 221.015625 C60.86505859 221.00208984 59.72230469 220.98855469 58.54492188 220.97460938 C55.76120287 220.9396673 52.97852586 220.89061511 50.1953125 220.828125 C59.84230835 225.51903783 68.63675516 226.98994569 79.1953125 227.828125 C70.7797624 238.84998352 57.21715433 244.08976128 43.83984375 246.41015625 C17.02805087 249.48503496 -9.30689993 242.3198191 -30.4921875 225.515625 C-53.14584629 206.09820318 -67.83414436 180.8108071 -70.8046875 150.828125 C-71.87564302 133.03222615 -71.92515571 115.03848549 -66.8046875 97.828125 C-66.45059814 96.62687988 -66.45059814 96.62687988 -66.08935547 95.40136719 C-55.69498964 61.26281172 -36.30459243 33.34405983 -11.3671875 8.265625 C-10.6561084 7.54979248 -9.9450293 6.83395996 -9.21240234 6.09643555 C-8.54289551 5.429104 -7.87338867 4.76177246 -7.18359375 4.07421875 C-6.27975952 3.17207642 -6.27975952 3.17207642 -5.35766602 2.25170898 C-3.51923427 0.5664558 -2.53130426 -0.2410766 0 0 Z " fill="#185196" transform="translate(341.8046875,461.171875)"/>
<path d="M0 0 C0.02578125 1.134375 0.0515625 2.26875 0.078125 3.4375 C0.30211769 14.84333617 0.30211769 14.84333617 5 25 C10.0290829 29.66986269 13.34374433 30.14872558 20.00723267 30.14717102 C20.84450878 30.15084771 21.68178488 30.1545244 22.544433 30.1583125 C25.3663794 30.1693767 28.18828902 30.17319783 31.01025391 30.17700195 C33.02710081 30.18326463 35.04394655 30.18991125 37.06079102 30.19691467 C42.5527661 30.21434471 48.04473247 30.22488228 53.53672838 30.2331202 C56.96706704 30.238267 60.39740298 30.24434294 63.82773972 30.25063133 C74.55772448 30.26969055 85.28770234 30.28391911 96.01770079 30.2922433 C108.4082525 30.30201392 120.79862548 30.32832593 133.18911421 30.36874419 C142.76202568 30.39890065 152.3348859 30.41371181 161.90784395 30.41702431 C167.62695318 30.41937569 173.34587164 30.42834734 179.06492996 30.45348549 C184.44772234 30.47676229 189.83019829 30.48100088 195.21302795 30.47072411 C197.18667528 30.47022851 199.16033816 30.47655582 201.13393784 30.49028015 C203.83329182 30.50799791 206.53151016 30.50089352 209.23086548 30.48774719 C210.00773386 30.49871644 210.78460223 30.50968568 211.58501208 30.52098733 C217.08442639 30.45654444 221.43744603 29.14245634 226 26 C229.3213626 21.82700596 231.03719419 18.29331037 231.31640625 12.98828125 C231.35830078 12.23095703 231.40019531 11.47363281 231.44335938 10.69335938 C231.50233398 9.51483398 231.50233398 9.51483398 231.5625 8.3125 C231.60568359 7.51521484 231.64886719 6.71792969 231.69335938 5.89648438 C231.79927368 3.93118553 231.90012551 1.96561504 232 0 C232.65742187 0.144375 233.31484375 0.28875 233.9921875 0.4375 C246.12216913 2.80432568 258.77847858 2.81059577 271 1 C267.27980204 8.9793031 260.04282165 15.95983001 252.55078125 20.4765625 C248.52415321 24.46002608 247.17475416 29.436938 245.25 34.6875 C230.44093822 73.12586872 230.44093822 73.12586872 212.2890625 81.23046875 C209.87727774 82.04125646 207.5044405 82.56194415 205 83 C205.28875 83.81984375 205.5775 84.6396875 205.875 85.484375 C206.431875 87.10085938 206.431875 87.10085938 207 88.75 C207.556875 90.35101562 207.556875 90.35101562 208.125 91.984375 C209 95 209 95 209 99 C210.28970703 98.94779297 210.28970703 98.94779297 211.60546875 98.89453125 C224.27101165 98.60448065 238.32134415 99.96361091 248.1015625 108.92578125 C253.46131969 114.78181225 255.31555661 118.95330653 255 127 C252.92157175 126.54967388 250.84441269 126.09282031 248.7734375 125.609375 C246.85286449 125.18738994 244.91818882 124.82668658 242.9765625 124.515625 C237.14835355 123.4292586 233.78546862 122.48632616 230.25 117.5625 C229.72277344 116.77101563 229.19554687 115.97953125 228.65234375 115.1640625 C226.12491504 111.85390764 222.96199386 110.16817551 219 109 C217.68 109 216.36 109 215 109 C215.53109375 109.37511719 216.0621875 109.75023437 216.609375 110.13671875 C223.4008633 115.0568298 227.89169773 119.72296145 230 128 C230.21306205 130.40261466 230.15112063 132.58206987 230 135 C226.53018609 134.4275813 223.79651864 133.56138031 220.70703125 131.890625 C219.91723877 131.4675708 219.12744629 131.0445166 218.3137207 130.60864258 C217.48831787 130.16029053 216.66291504 129.71193848 215.8125 129.25 C214.9568042 128.79842529 214.1011084 128.34685059 213.21948242 127.8815918 C209.7824529 126.06568526 206.39509718 124.24587365 203.09375 122.19140625 C195.67068817 117.70452127 188.24157689 118.99383408 180 120 C178.3817337 120.17911228 176.76323665 120.35615043 175.14453125 120.53125 C172.77057589 120.78929895 170.39810709 121.0521741 168.02734375 121.33813477 C164.32955521 121.78158572 160.72563359 122.11022585 157 122 C157.43422712 116.57216103 158.47342864 113.19376054 162 109 C166.28692275 106.50861446 170.34450191 105.29355749 175.1875 104.3125 C176.39792969 104.06113281 177.60835937 103.80976562 178.85546875 103.55078125 C182 103 182 103 185 103 C183.02 93.595 183.02 93.595 181 84 C179.515 83.62875 178.03 83.2575 176.5 82.875 C167.26983504 80.06694982 160.68059588 73.66747096 155 66 C153.7734375 63.22265625 153.7734375 63.22265625 153 61 C151.02 61 149.04 61 147 61 C150.19665507 68.4998446 154.39883165 76.19941582 162 80 C162.31517154 85.25285905 161.96749405 88.59662174 159 93 C155.57950926 96.52245659 152.38484599 98.32055559 147.4375 98.5625 C141.72398579 98.21269301 138.45830298 95.61595735 134.6875 91.4375 C133 89 133 89 132 86 C131.82984375 86.59167969 131.6596875 87.18335938 131.484375 87.79296875 C129.82752141 93.195369 128.26780744 98.01972269 123.17578125 101.10546875 C119.20797106 102.73675876 115.2063185 102.52578981 111 102 C105.54781149 99.47583865 103.48873365 96.25399327 101 91 C100.25 88.0625 100.25 88.0625 100 86 C99.79246094 86.53109375 99.58492187 87.0621875 99.37109375 87.609375 C97.3598564 92.22091503 95.53769417 95.17450789 90.91796875 97.37109375 C86.52061574 98.81299565 83.01673657 98.84934246 78.8203125 97.08203125 C74.28640661 94.51613946 71.63298142 92.10306694 70 87 C69.5625 83.3125 69.5625 83.3125 70 80 C71.875 78.0625 71.875 78.0625 74 77 C74.66 77 75.32 77 76 77 C76.2475 76.443125 76.495 75.88625 76.75 75.3125 C78 73 78 73 79.875 70.6875 C82.31727235 67.59874379 84.10654981 64.44878428 86 61 C80.74422554 61.98239775 80.74422554 61.98239775 77.0625 65.625 C76.381875 66.73875 75.70125 67.8525 75 69 C68.089459 77.09928085 61.19138763 81.08817496 51 84 C49.68 90.27 48.36 96.54 47 103 C52.97982898 104.15133239 52.97982898 104.15133239 58.96533203 105.27246094 C64.19263255 106.32571467 67.85088327 107.60939368 72 111 C74.48324798 114.89042184 75.13824401 117.46098849 75 122 C70.97887629 121.69116691 66.95816244 121.37727701 62.9375 121.0625 C61.80376953 120.97548828 60.67003906 120.88847656 59.50195312 120.79882812 C55.03904933 120.44752083 50.62076693 120.09231918 46.19140625 119.43359375 C38.9070682 118.44392236 34.51896016 118.72143466 27.98046875 122.24609375 C27.35521805 122.57666275 26.72996735 122.90723175 26.08576965 123.24781799 C24.11105955 124.29578378 22.14934148 125.36567054 20.1875 126.4375 C18.20539593 127.50063949 16.22089648 128.55917107 14.235672 129.61647034 C12.44497112 130.57327117 10.66018273 131.54111321 8.87573242 132.50952148 C6 134 6 134 3 135 C2.44952675 128.34539004 2.44188918 123.32640531 6.4296875 117.7890625 C9.47912489 114.31482786 12.84094199 111.079529 17 109 C10.24951774 109.54003858 6.23126579 111.45883619 1.75 116.5625 C0.46593067 118.35102514 -0.77869474 120.16804211 -2 122 C-3.72412109 122.78369141 -3.72412109 122.78369141 -5.7734375 123.3515625 C-6.5159375 123.56296875 -7.2584375 123.774375 -8.0234375 123.9921875 C-9.18746094 124.30542969 -9.18746094 124.30542969 -10.375 124.625 C-11.14328125 124.8415625 -11.9115625 125.058125 -12.703125 125.28125 C-16.12327768 126.23983951 -19.55188389 127.14736442 -23 128 C-23.54073671 120.42968608 -22.14857613 115.64782182 -17.15234375 109.859375 C-6.77763919 99.69178796 6.34290484 98.86381682 20.18359375 98.96484375 C21.11300781 98.97644531 22.04242188 98.98804688 23 99 C23.13277344 98.12085938 23.26554687 97.24171875 23.40234375 96.3359375 C23.94068965 93.33105255 24.65767995 90.53616016 25.5625 87.625 C25.83191406 86.75101563 26.10132813 85.87703125 26.37890625 84.9765625 C26.58386719 84.32429687 26.78882813 83.67203125 27 83 C26.21625 82.95875 25.4325 82.9175 24.625 82.875 C13.55287392 80.20241784 5.92902557 72.2797201 0 63 C-4.99510686 54.55932809 -9.4542022 45.79659034 -12.53515625 36.46875 C-16.18219525 25.63115159 -20.51758017 19.38375774 -29.45800781 12.26660156 C-31.72434877 10.40501561 -33.76224073 8.34403705 -35.8125 6.25 C-36.43769531 5.61578125 -37.06289063 4.9815625 -37.70703125 4.328125 C-38.13371094 3.88984375 -38.56039063 3.4515625 -39 3 C-38.67 2.34 -38.34 1.68 -38 1 C-37.36449219 1.16113281 -36.72898437 1.32226562 -36.07421875 1.48828125 C-31.97147115 2.17120366 -27.96503495 2.19074639 -23.8125 2.1875 C-22.96550537 2.18814453 -22.11851074 2.18878906 -21.24584961 2.18945312 C-15.97216734 2.14489393 -11.03605431 1.77711764 -5.91015625 0.4375 C-4 0 -4 0 0 0 Z " fill="#348AC3" transform="translate(396,711)"/>
<path d="M0 0 C0.33 0 0.66 0 1 0 C-0.09104222 16.66661043 -4.7334613 37.03367403 -16 50 C-19.42553191 52.87065236 -23.0370992 54.95159195 -27 57 C-28.10214844 57.58394531 -29.20429687 58.16789062 -30.33984375 58.76953125 C-49.26684397 68.39524784 -70.43289621 72.45229893 -91.33740234 75.0859375 C-120.31577745 78.74059332 -149.24716133 88.38210789 -168.44433594 111.75878906 C-172.89596818 117.52421805 -176.87325762 123.39687951 -180 130 C-180.66 130 -181.32 130 -182 130 C-183.01525969 128.3734471 -184.01952606 126.73901914 -184.96777344 125.07250977 C-198.80983428 100.84336204 -221.31021172 87.13688181 -247.59545898 79.6340332 C-257.38762813 76.98800989 -267.33140031 75.48418309 -277.37109375 74.140625 C-300.55097098 70.9960808 -331.79324237 65.83750912 -348.45703125 47.38671875 C-349.89520374 45.32762099 -350.9357185 43.27913659 -352 41 C-352.27440918 40.41959961 -352.54881836 39.83919922 -352.83154297 39.24121094 C-358.34354561 27.38142949 -362.34594378 15.24761173 -362 2 C-358.10818562 5.16775589 -354.55106834 8.44893166 -351 12 C-337.33048245 25.30979341 -319.33052106 33.48592462 -301 38 C-299.93136719 38.27585938 -298.86273438 38.55171875 -297.76171875 38.8359375 C-282.29333861 42.65109353 -266.94327076 45.33553704 -251.62109375 40.1484375 C-229.08059776 32.99967178 -205.90773759 31.81274438 -182.44580078 31.81469727 C-179.50408607 31.81250305 -176.56274303 31.79424421 -173.62109375 31.77539062 C-162.56127854 31.74199466 -151.93120696 32.27575044 -141 34 C-139.96681641 34.15138428 -138.93363281 34.30276855 -137.86914062 34.45874023 C-135.07313685 34.87884686 -132.28667812 35.33466974 -129.5 35.8125 C-128.52369629 35.9784668 -127.54739258 36.14443359 -126.54150391 36.31542969 C-120.63262603 37.37388111 -115.04628094 38.79742008 -109.375 40.75 C-85.72176479 48.65306029 -54.32107022 38.30354219 -32.79223633 27.63256836 C-25.5392654 23.84226396 -19.15204473 19.41908627 -13 14 C-11.93826784 13.18649689 -10.87586401 12.37386889 -9.8125 11.5625 C-6.54965566 8.58968627 -4.03542664 5.33491508 -1.41796875 1.79296875 C-0.95003906 1.20128906 -0.48210937 0.60960937 0 0 Z " fill="#1A5196" transform="translate(693,193)"/>
<path d="M0 0 C2.59594991 2.53939327 4.9947531 5.14403417 7.3125 7.9375 C10.00625129 11.03817968 12.66604208 13.46549553 16.09619141 15.71069336 C18.0207963 17.01408377 19.83837107 18.40781948 21.671875 19.8359375 C42.8523118 35.76199203 68.3794705 40.68627456 94.05273438 44.08642578 C121.69759203 47.77001597 146.90319471 56.13790193 167 76 C167.72832031 76.65613281 168.45664062 77.31226563 169.20703125 77.98828125 C175.40630808 83.69846326 179.8642813 90.70505174 184 98 C184 98.66 184 99.32 184 100 C184.66 100 185.32 100 186 100 C186.25652344 99.11828125 186.51304687 98.2365625 186.77734375 97.328125 C193.34491544 79.4509011 212.38744553 64.64175624 229.11206055 56.64501953 C231.06646608 55.74334877 233.02967938 54.86626606 235 54 C236.07894531 53.51789063 237.15789062 53.03578125 238.26953125 52.5390625 C251.79359515 46.92530013 265.95581957 44.93629463 280.375 43.0625 C301.02342373 40.35697284 320.6031074 35.65363953 339.125 25.9375 C339.72868408 25.62127686 340.33236816 25.30505371 340.9543457 24.97924805 C345.09963155 22.71273991 348.44439098 20.06739086 352 17 C353.30454497 16.05146169 354.61600011 15.11227054 355.9375 14.1875 C359.63384112 11.45419028 362.52673495 8.36091539 365.45703125 4.83203125 C366.89529358 3.1243223 368.39830579 1.55359529 370 0 C370.66589763 17.60929297 368.25473695 34.55383029 356 48 C340.65479057 64.08295988 318.84023674 67.75404878 297.52766418 68.2640686 C292.30717726 68.35490516 287.0868706 68.41903948 281.86572266 68.45629883 C250.56580535 68.72096083 224.61951003 76.19981543 201.86328125 98.73828125 C199.95929795 101.04940563 199.60776583 102.16375945 199 105 C197.96459515 106.71732471 196.87472834 108.40230317 195.75 110.0625 C191.65247043 116.34369245 188.3737103 122.8788691 186 130 C185.34 130 184.68 130 184 130 C183.70867187 129.24976563 183.41734375 128.49953125 183.1171875 127.7265625 C180.64101554 121.5439193 177.92890198 115.86274689 174.33203125 110.25390625 C173 108 173 108 172.07421875 105.515625 C165.78265879 90.78193549 147.06694251 80.90571962 132.91015625 75.15039062 C115.28762531 68.5715379 97.15744459 68.66176517 78.60913086 68.54370117 C54.38190292 68.36057319 32.6315721 65.71590339 14.125 48.5625 C2.5383655 36.31219193 -0.33653085 18.62316341 -0.0703125 2.421875 C-0.04710937 1.62265625 -0.02390625 0.8234375 0 0 Z " fill="#3AB571" transform="translate(327,223)"/>
<path d="M0 0 C2.31 1.98 4.62 3.96 7 6 C4.83164279 10.33671443 2.34335899 12.47614459 -1.375 15.375 C-2.03419434 15.89392822 -2.69338867 16.41285645 -3.37255859 16.94750977 C-20.61557774 30.35719645 -38.98120913 42.2714513 -58 53 C-57.3699048 56.94044608 -55.418102 59.55300771 -53.1875 62.8125 C-41.07971196 81.10993076 -25 108.18161801 -25 131 C-30.95333155 138.10777987 -38.06040704 144.21337297 -46 149 C-46.33 149 -46.66 149 -47 149 C-47.0093457 148.24904053 -47.01869141 147.49808105 -47.02832031 146.72436523 C-47.08227564 143.29476356 -47.16587547 139.86648892 -47.25 136.4375 C-47.26417969 135.25607422 -47.27835938 134.07464844 -47.29296875 132.85742188 C-47.50157468 123.6682396 -47.50157468 123.6682396 -52 116 C-59.75712263 110.48055872 -69.44224543 111.39522945 -78.50390625 111.390625 C-80.19499786 111.37562459 -81.88607491 111.35889356 -83.57713318 111.34051514 C-88.00099402 111.29703796 -92.4246573 111.2768864 -96.84869385 111.26177979 C-101.37385648 111.24213747 -105.89880795 111.20017571 -110.42382812 111.16015625 C-119.28248663 111.08506718 -128.14109739 111.03464715 -137 111 C-137.8057012 108.59400524 -138.61050408 106.18771622 -139.41479492 103.78125 C-139.64184868 103.10352539 -139.86890244 102.42580078 -140.10283661 101.72753906 C-141.623225 97.17545936 -143.05644494 92.63137998 -144.3125 88 C-144.63863281 86.824375 -144.96476563 85.64875 -145.30078125 84.4375 C-146.8980627 76.58494317 -145.4071188 71.79364038 -142 64.8125 C-141.24324423 63.23890818 -140.49297366 61.66217702 -139.75 60.08203125 C-139.41484375 59.39343018 -139.0796875 58.7048291 -138.734375 57.99536133 C-137.76973907 55.72872936 -137.76973907 55.72872936 -138 52 C-139.52435754 49.19539957 -139.52435754 49.19539957 -141.5 46.375 C-145 41.19444444 -145 41.19444444 -145 39 C-144.37061523 38.97083496 -143.74123047 38.94166992 -143.09277344 38.91162109 C-92.13463382 36.33549506 -45.26043178 23.65990215 0 0 Z " fill="#3089C3" transform="translate(675,453)"/>
<path d="M0 0 C0.33 0.66 0.66 1.32 1 2 C2.99616808 2.67805416 4.99696828 3.34249838 7 4 C9.12290312 5.132215 11.22535798 6.303143 13.3125 7.5 C52.75105068 29.11787088 101.34732557 38.70759264 146 40 C145.59007812 40.73605469 145.18015625 41.47210938 144.7578125 42.23046875 C144.21898437 43.20628906 143.68015625 44.18210937 143.125 45.1875 C142.59132813 46.15042969 142.05765625 47.11335938 141.5078125 48.10546875 C138.57436757 52.99390057 138.57436757 52.99390057 138.72265625 58.35253906 C139.16480469 59.14885742 139.60695313 59.94517578 140.0625 60.765625 C140.52914062 61.65636719 140.99578125 62.54710937 141.4765625 63.46484375 C142.48561549 65.30959961 143.50116758 67.1508166 144.5234375 68.98828125 C147.35853115 74.43134778 148.64589909 77.78839712 146.77734375 83.73583984 C146.39255859 84.85659912 146.39255859 84.85659912 146 86 C145.5797079 87.67753378 145.17384183 89.35873697 144.78125 91.04296875 C144.35540144 92.75811955 143.92830997 94.47296221 143.5 96.1875 C143.28730469 97.05052734 143.07460938 97.91355469 142.85546875 98.80273438 C142.64535156 99.64513672 142.43523437 100.48753906 142.21875 101.35546875 C142.03248047 102.10465576 141.84621094 102.85384277 141.65429688 103.62573242 C140.87458918 106.45508217 139.93545261 109.21871914 139 112 C137.5387394 112.00546844 137.5387394 112.00546844 136.04795837 112.01104736 C126.85235051 112.048042 117.65707615 112.10586342 108.46172237 112.18390274 C103.7346403 112.22335596 99.00774391 112.25555499 94.28051758 112.27099609 C89.7156054 112.28617691 85.15120378 112.32064762 80.58651924 112.36830902 C78.84792082 112.38310815 77.1092495 112.39104017 75.3705883 112.39188385 C72.92872012 112.39425975 70.48825579 112.42138743 68.04663086 112.45410156 C67.33308945 112.4490712 66.61954803 112.44404083 65.88438416 112.43885803 C60.43515205 112.55128507 57.39614144 113.99924211 53 117 C47.93804979 123.16201456 48.3426744 129.71603738 48.25 137.4375 C48.20552734 139.25024414 48.20552734 139.25024414 48.16015625 141.09960938 C48.08979587 144.06647208 48.03692979 147.03256424 48 150 C38.76377455 144.97957316 31.5947391 138.156651 25 130 C25.66 129.01 26.32 128.02 27 127 C27.54474279 125.08927256 27.54474279 125.08927256 27.90625 122.98828125 C32.35801891 101.61375126 42.27967555 81.32208874 54.5090332 63.37744141 C54.95077881 62.72694824 55.39252441 62.07645508 55.84765625 61.40625 C56.23961182 60.84228516 56.63156738 60.27832031 57.03540039 59.69726562 C58.10003197 57.82398829 58.56993272 56.10293421 59 54 C58.41210693 53.65855957 57.82421387 53.31711914 57.21850586 52.96533203 C34.67088711 39.83912199 13.12915968 25.6621836 -7 9 C-3.25 4.125 -3.25 4.125 -1 3 C-0.67 2.01 -0.34 1.02 0 0 Z " fill="#308AC3" transform="translate(348,452)"/>
<path d="M0 0 C0.66 0 1.32 0 2 0 C0.71689419 6.75497502 -1.30006139 12.58495159 -4.1875 18.8125 C-4.5896875 19.6876123 -4.991875 20.56272461 -5.40625 21.46435547 C-11.60020334 34.75923388 -18.88751198 49.67561692 -33 56 C-35.67133526 56.86600749 -38.2358125 57.4570346 -41 58 C-40.71125 58.81984375 -40.4225 59.6396875 -40.125 60.484375 C-39.75375 61.56203125 -39.3825 62.6396875 -39 63.75 C-38.62875 64.81734375 -38.2575 65.8846875 -37.875 66.984375 C-37 70 -37 70 -37 74 C-36.14019531 73.96519531 -35.28039062 73.93039062 -34.39453125 73.89453125 C-21.72898835 73.60448065 -7.67865585 74.96361091 2.1015625 83.92578125 C7.46131969 89.78181225 9.31555661 93.95330653 9 102 C6.92157175 101.54967388 4.84441269 101.09282031 2.7734375 100.609375 C0.85286449 100.18738994 -1.08181118 99.82668658 -3.0234375 99.515625 C-8.85164645 98.4292586 -12.21453138 97.48632616 -15.75 92.5625 C-16.27722656 91.77101563 -16.80445313 90.97953125 -17.34765625 90.1640625 C-19.87508496 86.85390764 -23.03800614 85.16817551 -27 84 C-28.32 84 -29.64 84 -31 84 C-30.46890625 84.37511719 -29.9378125 84.75023437 -29.390625 85.13671875 C-22.5991367 90.0568298 -18.10830227 94.72296145 -16 103 C-15.78693795 105.40261466 -15.84887937 107.58206987 -16 110 C-19.46981391 109.4275813 -22.20348136 108.56138031 -25.29296875 106.890625 C-26.08276123 106.4675708 -26.87255371 106.0445166 -27.6862793 105.60864258 C-28.92438354 104.9361145 -28.92438354 104.9361145 -30.1875 104.25 C-31.0431958 103.79842529 -31.8988916 103.34685059 -32.78051758 102.8815918 C-36.2175471 101.06568526 -39.60490282 99.24587365 -42.90625 97.19140625 C-50.32931183 92.70452127 -57.75842311 93.99383408 -66 95 C-67.6182663 95.17911228 -69.23676335 95.35615043 -70.85546875 95.53125 C-73.22942411 95.78929895 -75.60189291 96.0521741 -77.97265625 96.33813477 C-81.67044479 96.78158572 -85.27436641 97.11022585 -89 97 C-88.56577288 91.57216103 -87.52657136 88.19376054 -84 84 C-79.71307725 81.50861446 -75.65549809 80.29355749 -70.8125 79.3125 C-69.60207031 79.06113281 -68.39164063 78.80976562 -67.14453125 78.55078125 C-64 78 -64 78 -61 78 C-62.32 71.73 -63.64 65.46 -65 59 C-66.485 58.62875 -67.97 58.2575 -69.5 57.875 C-78.46000332 55.14913984 -85.80555021 48.77224408 -91 41 C-91.72265625 37.71875 -91.72265625 37.71875 -92 35 C-91.06655762 34.86537354 -91.06655762 34.86537354 -90.11425781 34.72802734 C-68.4747082 31.53966802 -48.89367039 26.09735599 -29 17 C-28.02957764 16.55720703 -28.02957764 16.55720703 -27.03955078 16.10546875 C-12.61899525 9.51695741 -12.61899525 9.51695741 0 0 Z " fill="#1D5499" transform="translate(642,736)"/>
<path d="M0 0 C0.64324219 0.4125 1.28648437 0.825 1.94921875 1.25 C3.88135239 2.48480153 5.81654537 3.71482236 7.75390625 4.94140625 C9.85185988 6.27187745 11.94350824 7.61236728 14.02734375 8.96484375 C38.27249331 24.40469309 65.53382385 32.74533481 94 36 C94.33 36.99 94.66 37.98 95 39 C90.44152103 47.52237373 82.86201749 54.23327758 74 58 C71.69 58.66 69.38 59.32 67 60 C65.68 66.27 64.36 72.54 63 79 C68.97982898 80.15133239 68.97982898 80.15133239 74.96533203 81.27246094 C80.19263255 82.32571467 83.85088327 83.60939368 88 87 C90.48324798 90.89042184 91.13824401 93.46098849 91 98 C86.97887629 97.69116691 82.95816244 97.37727701 78.9375 97.0625 C77.80376953 96.97548828 76.67003906 96.88847656 75.50195312 96.79882812 C71.03904933 96.44752083 66.62076693 96.09231918 62.19140625 95.43359375 C54.9070682 94.44392236 50.51896016 94.72143466 43.98046875 98.24609375 C43.35521805 98.57666275 42.72996735 98.90723175 42.08576965 99.24781799 C40.11105955 100.29578378 38.14934148 101.36567054 36.1875 102.4375 C34.20539593 103.50063949 32.22089648 104.55917107 30.235672 105.61647034 C28.44497112 106.57327117 26.66018273 107.54111321 24.87573242 108.50952148 C22 110 22 110 19 111 C18.44952675 104.34539004 18.44188918 99.32640531 22.4296875 93.7890625 C25.47912489 90.31482786 28.84094199 87.079529 33 85 C26.24951774 85.54003858 22.23126579 87.45883619 17.75 92.5625 C16.46593067 94.35102514 15.22130526 96.16804211 14 98 C12.27587891 98.78369141 12.27587891 98.78369141 10.2265625 99.3515625 C9.4840625 99.56296875 8.7415625 99.774375 7.9765625 99.9921875 C6.81253906 100.30542969 6.81253906 100.30542969 5.625 100.625 C4.85671875 100.8415625 4.0884375 101.058125 3.296875 101.28125 C-0.12327768 102.23983951 -3.55188389 103.14736442 -7 104 C-7.54073671 96.42968608 -6.14857613 91.64782182 -1.15234375 85.859375 C9.22236081 75.69178796 22.34290484 74.86381682 36.18359375 74.96484375 C37.11300781 74.97644531 38.04242188 74.98804688 39 75 C39.13277344 74.12085938 39.26554687 73.24171875 39.40234375 72.3359375 C39.94068965 69.33105255 40.65767995 66.53616016 41.5625 63.625 C41.83191406 62.75101563 42.10132813 61.87703125 42.37890625 60.9765625 C42.58386719 60.32429687 42.78882813 59.67203125 43 59 C42.21625 58.95875 41.4325 58.9175 40.625 58.875 C29.55287392 56.20241784 21.92902557 48.2797201 16 39 C0 11.98259188 0 11.98259188 0 0 Z " fill="#1D5399" transform="translate(380,735)"/>
<path d="M0 0 C7.30956191 5.28288116 11.20153101 13.60459304 14 22 C14.12234153 24.84515178 14.18512524 27.65503213 14.1875 30.5 C14.19974609 31.27214844 14.21199219 32.04429687 14.22460938 32.83984375 C14.23476991 36.7482648 14.21572048 38.67641928 12 42 C11.99613281 40.58460938 11.99613281 40.58460938 11.9921875 39.140625 C11.64633178 27.65821511 8.80203207 18.80967459 1 10 C-7.97432835 2.87289969 -17.55954539 -0.6475729 -29 0 C-28.443125 0.09796875 -27.88625 0.1959375 -27.3125 0.296875 C-17.54920963 2.20995217 -9.64873699 5.96322348 -3.875 14.3125 C-2.90149455 15.86559245 -1.94186518 17.4275182 -1 19 C-0.38125 20.03125 0.2375 21.0625 0.875 22.125 C3.93258443 30.06366801 2.89381472 39.75820095 -0.125 47.5 C-4.76177403 57.1761811 -11.26642171 62.9310003 -21.25 66.8125 C-30.36155298 69.5162713 -38.61463914 68.60407242 -47.171875 64.60546875 C-57.59236376 58.6899703 -62.78285575 50.35791796 -66 39 C-67.17577514 27.3907676 -65.99232489 17.91849749 -59.015625 8.25 C-43.0462562 -10.77733304 -20.59716494 -12.24465944 0 0 Z " fill="#1B5296" transform="translate(612,332)"/>
<path d="M0 0 C8.43539989 6.10886217 14.23389824 13.89878911 17 24 C18.53460387 37.25463169 16.32890285 46.75285237 8.10546875 57.46875 C1.93181805 64.2082139 -6.00265536 68.3249315 -15.10546875 69.203125 C-26.16819017 69.4521919 -34.01044221 65.69559177 -41.91015625 58.18359375 C-48.55724268 51.19780228 -51.18310326 44.23870902 -51.625 34.625 C-51.37949267 25.64125026 -48.28321538 18.85777807 -42.5 12.0625 C-41.675 11.381875 -40.85 10.70125 -40 10 C-39.05125 9.13375 -38.1025 8.2675 -37.125 7.375 C-31.74311254 3.28476553 -26.68270376 1.68190855 -20 1 C-31.61543491 -0.02892632 -41.10979995 3.60007749 -50.03125 11.05078125 C-58.66402532 19.59791396 -61.37075357 29.19620485 -62 41 C-65.39764466 35.25118524 -64.78710867 28.37651731 -63.3125 22.05078125 C-59.63524558 11.06498366 -52.26578441 2.10135895 -41.9375 -3.3125 C-27.8612976 -9.65632042 -13.00285107 -8.03478062 0 0 Z " fill="#1B5397" transform="translate(461,331)"/>
<path d="M0 0 C2.31 1.98 4.62 3.96 7 6 C4.83164279 10.33671443 2.34335899 12.47614459 -1.375 15.375 C-2.03419434 15.89392822 -2.69338867 16.41285645 -3.37255859 16.94750977 C-24.20214198 33.14642392 -46.680512 46.84902302 -69.68554688 59.70556641 C-71.10612551 60.50007146 -72.5246061 61.29835982 -73.93945312 62.10302734 C-82.76451841 67.1190459 -91.92432339 71.31023647 -101.1875 75.4375 C-102.3832666 75.97052734 -103.5790332 76.50355469 -104.81103516 77.05273438 C-114.23176019 81.20145864 -114.23176019 81.20145864 -118 82 C-124.41831459 72.4245685 -130.80477498 62.828007 -137.125 53.1875 C-137.95874146 51.92631348 -137.95874146 51.92631348 -138.80932617 50.63964844 C-139.32857666 49.84461914 -139.84782715 49.04958984 -140.3828125 48.23046875 C-140.84059082 47.53332764 -141.29836914 46.83618652 -141.77001953 46.11791992 C-143.10644599 43.81670922 -144.0685584 41.48955363 -145 39 C-144.37061523 38.97083496 -143.74123047 38.94166992 -143.09277344 38.91162109 C-92.13463382 36.33549506 -45.26043178 23.65990215 0 0 Z " fill="#37B672" transform="translate(675,453)"/>
<path d="M0 0 C0.33 0.66 0.66 1.32 1 2 C2.99616808 2.67805416 4.99696828 3.34249838 7 4 C9.12290312 5.132215 11.22535798 6.303143 13.3125 7.5 C52.75105068 29.11787088 101.34732557 38.70759264 146 40 C142.41776472 47.00428931 138.38398087 53.56349523 133.97753906 60.06494141 C129.118134 67.25166876 124.55806373 74.61981596 120 82 C111.89107039 81.73809668 105.45492051 78.19839864 98.3125 74.625 C97.00973365 73.98239607 95.70667009 73.34039438 94.40332031 72.69897461 C91.17730508 71.10607987 87.95992905 69.49663932 84.74639893 67.87872314 C83.16689969 67.08397773 81.58528127 66.29344747 80.00341797 65.50341797 C49.07608359 49.99772233 19.66346755 31.07104512 -7 9 C-3.25 4.125 -3.25 4.125 -1 3 C-0.67 2.01 -0.34 1.02 0 0 Z " fill="#35B671" transform="translate(348,452)"/>
<path d="M0 0 C0.79910286 0.00086648 1.59820571 0.00173296 2.42152381 0.0026257 C3.68545671 -0.00183098 3.68545671 -0.00183098 4.97492361 -0.0063777 C7.82080132 -0.0151041 10.66663717 -0.01657626 13.51252723 -0.01806521 C15.543946 -0.02269066 17.5753639 -0.02771494 19.60678077 -0.03311038 C25.14200438 -0.04626406 30.67721584 -0.05268528 36.21245265 -0.05712104 C39.6677216 -0.06004741 43.12298719 -0.06415141 46.57825446 -0.06862521 C57.38031992 -0.08230888 68.18237776 -0.09197088 78.98445129 -0.0958271 C91.46953096 -0.10030807 103.95450116 -0.11785414 116.43954754 -0.1468277 C126.07863418 -0.1684229 135.71768997 -0.17853025 145.35680056 -0.17986822 C151.11882755 -0.18091794 156.88075176 -0.18686094 162.64275336 -0.20468783 C168.06324058 -0.22113081 173.48354736 -0.22334237 178.90405059 -0.21454883 C180.89507697 -0.21377639 182.88611289 -0.2181483 184.87711501 -0.22800708 C187.59273675 -0.24066649 190.30771366 -0.23488251 193.02333045 -0.22442508 C193.81351042 -0.23248148 194.60369039 -0.24053789 195.41781521 -0.24883842 C199.94937822 -0.20795365 202.89547245 0.3002169 206.47639441 3.1430676 C208.92925738 6.82236204 208.7086832 8.61684667 208.67170691 12.99853635 C208.66887702 13.66017285 208.66604712 14.32180936 208.66313148 15.00349545 C208.6519536 17.11270497 208.62685422 19.22148685 208.60139441 21.3305676 C208.59136148 22.76220208 208.58223618 24.19384323 208.57405066 25.62548947 C208.55372512 29.13164538 208.51457433 32.6368789 208.47639441 36.1430676 C203.85639441 38.4530676 199.23639441 40.7630676 194.47639441 43.1430676 C194.14639441 33.5730676 193.81639441 24.0030676 193.47639441 14.1430676 C130.77639441 14.1430676 68.07639441 14.1430676 3.47639441 14.1430676 C3.14639441 23.7130676 2.81639441 33.2830676 2.47639441 43.1430676 C-1.05253006 41.73149781 -4.07222762 40.36922227 -7.33610559 38.5180676 C-8.52139855 37.84904416 -8.52139855 37.84904416 -9.73063684 37.1665051 C-10.32231652 36.82877072 -10.91399621 36.49103635 -11.52360559 36.1430676 C-11.6476368 31.96226159 -11.7381416 27.78244258 -11.79826379 23.60034299 C-11.82333706 22.17925469 -11.85740557 20.75829446 -11.90080285 19.33764768 C-11.96178416 17.28939298 -11.98988321 15.24284877 -12.01188684 13.19384885 C-12.03807092 11.96319699 -12.064255 10.73254514 -12.09123254 9.4646008 C-11.37154231 5.2532522 -9.74246059 3.84049975 -6.52360559 1.1430676 C-4.74689503 -0.63364295 -2.36702965 0.01262844 0 0 Z " fill="#1F5698" transform="translate(413.52360558509827,569.8569324016571)"/>
<path d="M0 0 C0.33 6.6 0.66 13.2 1 20 C63.7 20 126.4 20 191 20 C191.33 13.4 191.66 6.8 192 0 C196.95677777 1.98271111 201.37474446 4.37672074 206 7 C206.0875127 10.22899426 206.14056146 13.45768116 206.1875 16.6875 C206.21263672 17.59951172 206.23777344 18.51152344 206.26367188 19.45117188 C206.35882136 28.17320802 206.35882136 28.17320802 203 32 C199.23363885 34.61758294 195.14542641 34.28769818 190.73880005 34.27415466 C189.89840396 34.27939134 189.05800787 34.28462802 188.19214523 34.29002339 C185.37170123 34.30504398 182.55143831 34.30572899 179.73095703 34.30639648 C177.71056817 34.31401654 175.69018221 34.32244377 173.6697998 34.33161926 C168.17806783 34.35358521 162.68639155 34.36236589 157.19462061 34.36744571 C153.76461658 34.37108653 150.3346272 34.37732513 146.90462875 34.3844471 C134.94145821 34.40894801 122.97833107 34.42199507 111.01513672 34.42553711 C99.85880177 34.4291738 88.7027417 34.4590772 77.54649079 34.50094169 C67.9718637 34.53561323 58.39732785 34.551085 48.82263839 34.55178314 C43.10247048 34.55257697 37.38258253 34.56136434 31.6624794 34.58978081 C26.2828833 34.61590781 20.90380037 34.6181965 15.52416992 34.60212517 C13.54968016 34.60030646 11.57516125 34.60703928 9.60073471 34.62294388 C6.90493527 34.64333564 4.21094298 34.63289384 1.51516724 34.61473083 C0.73383741 34.6279308 -0.04749241 34.64113077 -0.85249889 34.65473074 C-6.69291163 34.56485319 -9.06632261 33.0211676 -13 29 C-15.96057452 23.07885096 -15.60118907 13.29203473 -14 7 C-10.38993262 3.01106498 -5.55649975 0 0 0 Z " fill="#1B5397" transform="translate(416,702)"/>
<path d="M0 0 C2.46568275 -0.07354617 4.93264432 -0.11004971 7.39941406 -0.11694336 C9.36010834 -0.14334145 9.36010834 -0.14334145 11.3604126 -0.17027283 C14.12797064 -0.20166193 16.89439687 -0.20881459 19.66210938 -0.20117188 C23.19270916 -0.19498602 26.71693308 -0.26633623 30.24615097 -0.35860538 C33.63070578 -0.43245209 37.01406083 -0.42599752 40.39941406 -0.42944336 C41.65800232 -0.46739517 42.91659058 -0.50534698 44.21331787 -0.54444885 C52.86345259 -0.40945782 52.86345259 -0.40945782 56.63781738 3.25930786 C58.74414062 6.20166016 58.74414062 6.20166016 60.45953369 9.12843323 C62.23758551 11.97172217 64.00173751 13.60383513 66.66503906 15.60571289 C69.63869996 18.05357913 70.08534075 18.44273073 70.85253906 22.41821289 C69.79364731 27.71267164 68.22677362 31.27252843 64.04003906 34.73071289 C59.87747462 37.45002032 56.00100703 37.80878687 51.16503906 36.85571289 C45.86151626 34.15391826 42.06671608 30.56074394 40.16503906 24.85571289 C39.99488281 25.44739258 39.82472656 26.03907227 39.64941406 26.64868164 C37.99256048 32.0510819 36.4328465 36.87543558 31.34082031 39.96118164 C27.37301012 41.59247165 23.37135756 41.3815027 19.16503906 40.85571289 C13.71285055 38.33155154 11.65377272 35.10970616 9.16503906 29.85571289 C8.41503906 26.91821289 8.41503906 26.91821289 8.16503906 24.85571289 C7.85373047 25.65235352 7.85373047 25.65235352 7.53613281 26.46508789 C5.52489546 31.07662792 3.70273323 34.03022078 -0.91699219 36.22680664 C-5.3143452 37.66870854 -8.81822437 37.70505535 -13.01464844 35.93774414 C-17.54855432 33.37185235 -20.20197952 30.95877983 -21.83496094 25.85571289 C-22.27246094 22.16821289 -22.27246094 22.16821289 -21.83496094 18.85571289 C-19.95996094 16.91821289 -19.95996094 16.91821289 -17.83496094 15.85571289 C-17.17496094 15.85571289 -16.51496094 15.85571289 -15.83496094 15.85571289 C-15.58746094 15.29883789 -15.33996094 14.74196289 -15.08496094 14.16821289 C-13.6145214 11.44789975 -11.78018857 9.25864115 -9.83496094 6.85571289 C-9.4040918 5.8316333 -8.97322266 4.80755371 -8.52929688 3.75244141 C-5.3548522 0.33953944 -4.49469913 0.35565167 0 0 Z " fill="#1C5498" transform="translate(487.8349609375,772.144287109375)"/>
<path d="M0 0 C18.03697209 -0.0700785 36.07390886 -0.12298248 54.11098766 -0.15543652 C62.4859033 -0.17090596 70.86073435 -0.19199693 79.2355957 -0.22631836 C86.53505663 -0.25621838 93.83445629 -0.27557444 101.13397676 -0.28226548 C104.99910046 -0.28617674 108.8640489 -0.29537022 112.72911644 -0.31719017 C116.36769651 -0.33756492 120.00602925 -0.34383186 123.64466095 -0.33932304 C125.61539871 -0.34054082 127.58610959 -0.35667782 129.55677795 -0.3732605 C131.32143906 -0.36707451 131.32143906 -0.36707451 133.12174988 -0.36076355 C134.14217471 -0.36352893 135.16259954 -0.36629431 136.21394634 -0.36914349 C139.49981825 0.06622437 141.34429841 1.04146081 144 3 C146.45286296 6.67929445 146.23228878 8.47377907 146.1953125 12.85546875 C146.1924826 13.51710526 146.18965271 14.17874176 146.18673706 14.86042786 C146.17555918 16.96963737 146.15045981 19.07841925 146.125 21.1875 C146.11496707 22.61913448 146.10584176 24.05077564 146.09765625 25.48242188 C146.07733071 28.98857778 146.03817991 32.4938113 146 36 C141.38 38.31 136.76 40.62 132 43 C131.93941406 40.91816406 131.87882813 38.83632813 131.81640625 36.69140625 C131.75384593 34.68252498 131.69125225 32.67364459 131.62768555 30.66479492 C131.58428566 29.26510801 131.54261436 27.86536641 131.50268555 26.46557617 C131.44510555 24.45738505 131.38086 22.44938851 131.31640625 20.44140625 C131.27974854 19.23170166 131.24309082 18.02199707 131.20532227 16.77563477 C131.31061734 14.09294544 131.31061734 14.09294544 130 13 C128.01091492 12.88138204 126.01764356 12.83257095 124.02514648 12.81054688 C122.74127548 12.79382935 121.45740448 12.77711182 120.1346283 12.7598877 C119.4415904 12.75320572 118.74855251 12.74652374 118.03451347 12.73963928 C115.84764533 12.71852359 113.66091968 12.69148344 111.47413635 12.66296387 C107.58547983 12.61323933 103.69678334 12.56880636 99.80804443 12.52606201 C92.93315089 12.45047872 86.05833277 12.3698073 79.18359375 12.28125 C78.44406841 12.27186401 77.70454308 12.26247803 76.94260788 12.25280762 C63.94999886 12.08248138 50.97756735 11.66330674 38 11 C38 8.33333333 38 5.66666667 38 3 C34.12037251 1.76676999 30.2031527 1.77677051 26.171875 1.68359375 C25.42286926 1.66281265 24.67386353 1.64203156 23.90216064 1.62062073 C21.51819712 1.55542912 19.13412688 1.49638217 16.75 1.4375 C15.13019746 1.39428584 13.51040557 1.35067063 11.890625 1.30664062 C7.92719168 1.19977904 3.9636514 1.09842667 0 1 C0 0.67 0 0.34 0 0 Z " fill="#185195" transform="translate(476,570)"/>
<path d="M0 0 C8.40737092 3.19480095 13.53966259 10.78899612 18.125 18.1875 C18.71667969 19.14076172 18.71667969 19.14076172 19.3203125 20.11328125 C20.87889538 24.13079342 20.50478568 27.24719462 18.91015625 31.1953125 C13.51239539 40.96268929 7.10979404 49.48409975 0.125 58.1875 C-2.92236701 56.85911872 -4.67201707 55.55473618 -6.6796875 52.9140625 C-7.17823242 52.25970215 -7.67677734 51.6053418 -8.19042969 50.93115234 C-8.70508789 50.23199707 -9.21974609 49.5328418 -9.75 48.8125 C-10.28012695 48.09658691 -10.81025391 47.38067383 -11.35644531 46.64306641 C-22.83988818 30.81539546 -22.83988818 30.81539546 -21.875 22.1875 C-18.01551273 14.16022322 -9.86517739 0.64338113 0 0 Z " fill="#1B5297" transform="translate(512.875,392.8125)"/>
<path d="M0 0 C5.94 0 11.88 0 18 0 C18 21.45 18 42.9 18 65 C12.06 65 6.12 65 0 65 C0 43.55 0 22.1 0 0 Z " fill="#40BC74" transform="translate(546,635)"/>
<path d="M0 0 C7.26 0 14.52 0 22 0 C24.07753724 5.54009931 25.96865597 10.9135489 27.625 16.5625 C27.8415625 17.27857422 28.058125 17.99464844 28.28125 18.73242188 C28.49007812 19.44076172 28.69890625 20.14910156 28.9140625 20.87890625 C29.0992041 21.5035376 29.2843457 22.12816895 29.47509766 22.77172852 C30.18997579 25.80646931 30.55907592 28.91353141 31 32 C18.13 32 5.26 32 -8 32 C-7.40883096 27.86181672 -6.8726546 24.10973975 -5.87890625 20.1171875 C-5.55889648 18.83134766 -5.55889648 18.83134766 -5.23242188 17.51953125 C-5.01134766 16.64683594 -4.79027344 15.77414062 -4.5625 14.875 C-4.23668945 13.55435547 -4.23668945 13.55435547 -3.90429688 12.20703125 C-3.68966797 11.35238281 -3.47503906 10.49773438 -3.25390625 9.6171875 C-3.06127197 8.85003418 -2.8686377 8.08288086 -2.67016602 7.29248047 C-1.94381954 4.80781986 -0.9614011 2.40350275 0 0 Z " fill="#3ABB76" transform="translate(501,532)"/>
<path d="M0 0 C7.65453286 -0.11588345 7.65453286 -0.11588345 10.38671875 -0.08398438 C12.61776955 -0.0669516 14.83856671 -0.12443482 17.06860352 -0.18798828 C27.21517908 -0.29015662 27.21517908 -0.29015662 30.87573242 2.43994141 C33.19075634 5.73008383 33.8385486 7.82404244 33.22680664 11.81591797 C32.4649707 13.29705078 32.4649707 13.29705078 31.68774414 14.80810547 C31.10885033 16.09565675 30.53353316 17.38482015 29.96118164 18.67529297 C29.33236494 20.01311591 28.69880281 21.34871046 28.06274414 22.68310547 C26.94899414 25.03435547 25.83524414 27.38560547 24.68774414 29.80810547 C16.76774414 29.80810547 8.84774414 29.80810547 0.68774414 29.80810547 C-0.81788086 26.75560547 -2.32350586 23.70310547 -3.87475586 20.55810547 C-4.35372314 19.60258789 -4.83269043 18.64707031 -5.32617188 17.66259766 C-5.69411865 16.90108398 -6.06206543 16.13957031 -6.44116211 15.35498047 C-6.82344971 14.57993164 -7.2057373 13.80488281 -7.59960938 13.00634766 C-8.85969454 9.11946625 -7.50389478 7.18813176 -5.70068359 3.61230469 C-3.31225586 0.80810547 -3.31225586 0.80810547 0 0 Z " fill="#3BBB77" transform="translate(499.312255859375,497.19189453125)"/>
<path d="M0 0 C3.37306331 3.37306331 5.80630027 7.17014499 8.25 11.25 C9.178125 12.796875 9.178125 12.796875 10.125 14.375 C13.18258443 22.31366801 12.14381472 32.00820095 9.125 39.75 C4.48822597 49.4261811 -2.01642171 55.1810003 -12 59.0625 C-21.11536564 61.76740267 -29.33615812 60.83353613 -37.91015625 56.87890625 C-43.68536903 53.5663014 -49.05928973 49.47746863 -51.75 43.25 C-49.54921881 44.28743919 -47.56113321 45.37948949 -45.55078125 46.7578125 C-37.37695577 52.07015748 -29.22190482 52.86049678 -19.75 51.25 C-11.6258809 48.78055411 -5.81126739 44.7455321 -1.75 37.25 C-1.41355469 36.63382812 -1.07710937 36.01765625 -0.73046875 35.3828125 C2.35781558 28.58576663 2.50941847 21.06054818 0.18359375 14.0234375 C-3.66309617 5.57539369 -8.39680662 0.71808392 -17.0625 -2.5625 C-22.19408623 -4.08762178 -27.42480372 -4.4613445 -32.75 -4.75 C-23.65954796 -13.84045204 -8.85398193 -5.63435214 0 0 Z " fill="#3CBC76" transform="translate(602.75,339.75)"/>
<path d="M0 0 C0 0.33 0 0.66 0 1 C-0.89460938 1.01417969 -1.78921875 1.02835937 -2.7109375 1.04296875 C-13.51910603 1.46930376 -20.86835725 3.35871842 -28.4375 11.3125 C-33.81778813 17.91014625 -35.61149318 23.67276907 -35.3515625 32.19140625 C-34.4259852 39.58574045 -31.29373845 45.82657379 -26 51 C-18.15747065 56.82912637 -10.77380555 59.05136554 -1 58 C5.9261919 56.28007315 11.45206089 53.43835129 17 49 C13.26263933 57.21141263 6.21429657 61.80408397 -2 65 C-10.99989968 67.18430745 -20.05453544 66.44493524 -28.1640625 61.74609375 C-36.23405021 56.02855419 -42.73797356 48.80211456 -45 39 C-46.31629498 28.59554667 -44.84849764 20.73801667 -39 12 C-36.5 9.0625 -36.5 9.0625 -34 7 C-33.05125 6.13375 -32.1025 5.2675 -31.125 4.375 C-27.7937063 1.84321679 -24.93829062 0.40176446 -21 -1 C-20.33226562 -1.24105469 -19.66453125 -1.48210937 -18.9765625 -1.73046875 C-12.19441644 -3.750422 -6.61223313 -2.08100738 0 0 Z " fill="#3EBD76" transform="translate(455,334)"/>
<path d="M0 0 C-0.78914095 6.78661213 -2.41274811 13.36149367 -4 20 C-6.31 18.35 -8.62 16.7 -11 15 C-13.85846007 17.82902876 -16.71094984 20.66400779 -19.5625 23.5 C-20.36236328 24.29148437 -21.16222656 25.08296875 -21.98632812 25.8984375 C-26.31815909 30.21258752 -30.47696698 34.59956152 -34.46118164 39.23632812 C-36.51967767 41.59561344 -38.70700124 43.80381661 -40.9375 46 C-41.70964844 46.763125 -42.48179687 47.52625 -43.27734375 48.3125 C-43.84582031 48.869375 -44.41429687 49.42625 -45 50 C-50.90661537 47.21386067 -56.1452593 43.96320272 -61.484375 40.1953125 C-63.88572588 38.71160107 -63.88572588 38.71160107 -66.109375 39.62109375 C-67.99264376 40.99463481 -69.76427197 42.38067376 -71.5 43.9375 C-72.1909375 44.55496094 -72.881875 45.17242188 -73.59375 45.80859375 C-76.9244098 48.84187322 -80.245102 51.88592206 -83.56079102 54.93554688 C-89.22588122 60.14077035 -94.93507223 65.26177518 -101 70 C-102.65 69.34 -104.3 68.68 -106 68 C-103.153487 64.08604463 -99.92557015 61.0757663 -96.2734375 57.953125 C-93.81335841 55.83965499 -91.40514379 53.67573008 -89 51.5 C-85.36709226 48.2220634 -81.71718733 44.96860752 -78.0078125 41.77734375 C-76.53288351 40.47171595 -75.094992 39.12394007 -73.6796875 37.75390625 C-72.89851563 37.01011719 -72.11734375 36.26632812 -71.3125 35.5 C-70.60738281 34.8090625 -69.90226562 34.118125 -69.17578125 33.40625 C-67 32 -67 32 -64.640625 32.03125 C-61.28171577 33.26351256 -58.40888886 35.0441491 -55.4375 37 C-50.58828842 40.48409897 -50.58828842 40.48409897 -45 42 C-43.2206832 40.86878521 -43.2206832 40.86878521 -41.6875 39.0625 C-41.07390625 38.40507813 -40.4603125 37.74765625 -39.828125 37.0703125 C-37.60479903 34.55244334 -35.42053173 32.00270264 -33.23828125 29.44921875 C-31.36828566 27.4029932 -29.45950085 25.45805837 -27.48046875 23.51953125 C-26.53216187 22.58959351 -26.53216187 22.58959351 -25.56469727 21.64086914 C-24.28662608 20.39497092 -23.00207772 19.15567764 -21.71069336 17.92358398 C-21.11780518 17.34552002 -20.52491699 16.76745605 -19.9140625 16.171875 C-19.3773291 15.6572168 -18.8405957 15.14255859 -18.28759766 14.61230469 C-16.76312072 12.70338439 -16.20434542 11.43647252 -16 9 C-18.35426499 6.22877725 -18.35426499 6.22877725 -21 4 C-18.43923903 3.32595716 -15.87673417 2.660586 -13.3125 2 C-12.59126953 1.80921875 -11.87003906 1.6184375 -11.12695312 1.421875 C-7.33149039 0.45134572 -3.95384561 -0.24955239 0 0 Z " fill="#2A5C9B" transform="translate(562,605)"/>
<path d="M0 0 C5.61 0 11.22 0 17 0 C17 11.55 17 23.1 17 35 C11.39 35 5.78 35 0 35 C0 23.45 0 11.9 0 0 Z " fill="#1C5498" transform="translate(486,664)"/>
<path d="M0 0 C5.61 0 11.22 0 17 0 C17 11.22 17 22.44 17 34 C11.39 34 5.78 34 0 34 C0 22.78 0 11.56 0 0 Z " fill="#3288C1" transform="translate(516,665)"/>
<path d="M0 0 C43.89 0 87.78 0 133 0 C133 1.32 133 2.64 133 4 C89.11 4 45.22 4 0 4 C0 2.68 0 1.36 0 0 Z " fill="#3D6CA8" transform="translate(445,703)"/>
<path d="M0 0 C0.5775 0.7425 1.155 1.485 1.75 2.25 C4.94019443 6.14912653 8.24956722 8.46574327 13.171875 9.421875 C19.2535797 9.79936012 23.36294633 7.84244118 28 4 C29.95408024 1.87860167 29.95408024 1.87860167 31 0 C33.475 0.495 33.475 0.495 36 1 C36.68359375 2.75 36.68359375 2.75 37 5 C33.22384581 11.55386761 27.13876077 15.54318627 19.98828125 17.5703125 C13.98047971 18.86865861 10.19227551 18.44848734 4.875 15.4375 C0.68476624 12.69798086 -3.69452888 9.56921426 -6 5 C-5.76953125 2.8515625 -5.76953125 2.8515625 -5 1 C-3 0 -3 0 0 0 Z " fill="#19569D" transform="translate(572,543)"/>
<path d="M0 0 C3.65940226 0.09890276 4.91306569 0.91927528 7.625 3.4375 C8.40875 4.283125 9.1925 5.12875 10 6 C14.68378856 9.12252571 19.51659741 8.58168048 25 8 C29.39425879 6.51224048 32.57702797 3.99077746 35 0 C37.475 0.495 37.475 0.495 40 1 C40.67578125 2.75 40.67578125 2.75 41 5 C37.83605361 10.84816084 32.77838153 14.27397823 26.61328125 16.37890625 C19.52130606 18.06444295 12.37435971 17.75349693 6 14 C2.39682601 11.17192739 -0.42840519 8.51304509 -2.0625 4.1875 C-2 2 -2 2 0 0 Z " fill="#1A569C" transform="translate(417,543)"/>
<path d="M0 0 C4.12398455 0.38905515 6.09904465 1.75634234 9.3125 4.3125 C11.65159307 7.8211396 11.72541057 9.18339433 11.3125 13.3125 C10.05146101 16.08678577 9.00160086 17.79567435 6.5625 19.625 C3.2914382 20.62449111 0.71507412 20.6706657 -2.6875 20.3125 C-5.44079021 18.51687595 -7.21377461 17.25995078 -8.6875 14.3125 C-9.19448467 9.15815588 -9.19448467 9.15815588 -8.6875 6.3125 C-6.25 3.375 -6.25 3.375 -3.6875 1.3125 C-2.6875 0.3125 -2.6875 0.3125 0 0 Z " fill="#F5F7FA" transform="translate(564.6875,339.6875)"/>
<path d="M0 0 C3.49406769 1.66762322 4.82670681 2.74006022 7 6 C7.67226891 12.94677871 7.67226891 12.94677871 5.125 16.9375 C2.20157849 19.77493852 1.36073651 19.96451772 -2.8125 20.375 C-6.19041338 20.31358339 -6.98752826 20.0084914 -9.9375 18 C-12.45180202 14.34283343 -13.61793741 11.45611201 -13 7 C-9.8708025 1.30608769 -6.34216852 -0.49742498 0 0 Z " fill="#F6F8F9" transform="translate(461,340)"/>
<path d="M0 0 C11.55 0 23.1 0 35 0 C32.57635696 4.84728608 30.2025301 6.97556739 25.3125 9.25 C18.18624591 10.86349149 12.13019728 10.82179278 5.6953125 7.1484375 C3.47981217 5.6476147 1.67312776 4.0914097 0 2 C0 1.34 0 0.68 0 0 Z " fill="#1C5BA0" transform="translate(521,742)"/>
<path d="M0 0 C11.55 0 23.1 0 35 0 C33.04178373 3.91643254 32.56264962 4.62130367 29.0625 6.6875 C28.37285156 7.10386719 27.68320312 7.52023437 26.97265625 7.94921875 C22.37942362 10.39591098 18.08100788 10.4742274 13 10 C8.27885606 8.42628535 4.62959073 6.41608539 1 3 C0.67 2.01 0.34 1.02 0 0 Z " fill="#1C5A9F" transform="translate(468,742)"/>
<path d="M0 0 C5.94 0 11.88 0 18 0 C18 4.29 18 8.58 18 13 C12.06 13 6.12 13 0 13 C0 8.71 0 4.42 0 0 Z " fill="#3DC07A" transform="translate(456,686)"/>
<path d="M0 0 C-0.33 0.99 -0.66 1.98 -1 3 C-3.37332871 3.6933663 -5.64413402 4.2158708 -8.0625 4.6875 C-25.55704475 8.60153374 -38.76220199 18.14689371 -51 31 C-51 27.38687603 -49.92533635 26.49390887 -47.49707031 23.97705078 C-37.37382495 13.98375315 -15.62580782 -5.02258109 0 0 Z " fill="#27599A" transform="translate(578,295)"/>
<path d="M0 0 C18.71956514 3.18849736 37.58827117 16.83072956 48.5625 32 C48.0675 32.99 48.0675 32.99 47.5625 34 C46.91925781 33.23816406 46.27601563 32.47632813 45.61328125 31.69140625 C31.67018683 15.58468305 14.48820569 6.43312359 -6.4375 3 C-4.09781481 0.26918202 -3.84425297 0 0 0 Z " fill="#2E5C9D" transform="translate(451.4375,295)"/>
<path d="M0 0 C2.7734375 -0.29296875 2.7734375 -0.29296875 6 0 C7.9765625 2.01171875 7.9765625 2.01171875 9.625 4.6875 C11.49162047 7.62846425 13.20701797 10.23807067 15.5 12.875 C17 15 17 15 16.75 17.3125 C16.5025 17.869375 16.255 18.42625 16 19 C10.52712532 18.14486333 7.47953973 14.01430506 4 10 C1.68517883 6.73996019 0 4.10785008 0 0 Z " fill="#EBF0F4" transform="translate(543,772)"/>
<path d="M0 0 C5.54933189 6.34209359 6.27615829 12.76407947 6.3125 20.8125 C6.31789795 21.56619873 6.3232959 22.31989746 6.32885742 23.09643555 C6.27959838 26.9090855 6.16049814 28.75925279 4 32 C3.99742187 31.06800781 3.99484375 30.13601563 3.9921875 29.17578125 C3.69520716 19.38532929 1.7917468 12.68962034 -3 4 C-2.01 3.67 -1.02 3.34 0 3 C0 2.01 0 1.02 0 0 Z " fill="#2F5FA0" transform="translate(620,342)"/>
<path d="M0 0 C3 0.25 3 0.25 5 2.25 C5.25 5.25 5.25 5.25 5 8.25 C3 10.25 3 10.25 0 10.5 C-3 10.25 -3 10.25 -5 8.25 C-5.25 5.25 -5.25 5.25 -5 2.25 C-3 0.25 -3 0.25 0 0 Z " fill="#F1F4F7" transform="translate(589,374.75)"/>
<path d="M0 0 C3 0.25 3 0.25 5 2.25 C5.25 5.25 5.25 5.25 5 8.25 C3 10.25 3 10.25 0 10.5 C-3 10.25 -3 10.25 -5 8.25 C-5.25 5.25 -5.25 5.25 -5 2.25 C-3 0.25 -3 0.25 0 0 Z " fill="#F3F7F9" transform="translate(435,374.75)"/>
<path d="M0 0 C6.50736266 1.00924375 11.82458974 2.8174742 17 7 C17.99 8.485 17.99 8.485 19 10 C18.01 10 17.02 10 16 10 C15.01 11.485 15.01 11.485 14 13 C13.6596875 12.55269531 13.319375 12.10539063 12.96875 11.64453125 C9.5820566 7.42017167 6.25263243 4.61103931 1.5390625 1.9453125 C1.03117188 1.63335938 0.52328125 1.32140625 0 1 C0 0.67 0 0.34 0 0 Z " fill="#E5EDF3" transform="translate(608,818)"/>
<path d="M0 0 C0.33 1.65 0.66 3.3 1 5 C-0.6396875 4.5359375 -0.6396875 4.5359375 -2.3125 4.0625 C-7.48276323 2.7536901 -12.69261392 2.37073653 -18 2 C-12.57587324 -3.42412676 -6.71002298 -1.72391895 0 0 Z " fill="#39B774" transform="translate(588,333)"/>
<path d="M0 0 C0 0.33 0 0.66 0 1 C-6.6 1.33 -13.2 1.66 -20 2 C-18 -1 -18 -1 -15.625 -2.375 C-10.09115739 -3.3291108 -5.30560536 -1.59683268 0 0 Z " fill="#37B36F" transform="translate(455,334)"/>
<path d="M0 0 C-3.32850747 3.59478807 -6.98971331 6.22364768 -11 9 C-11.99 7.68 -12.98 6.36 -14 5 C-9.10663008 1.62901183 -5.97562839 -0.16150347 0 0 Z " fill="#E9EEF4" transform="translate(414,819)"/>
<path d="M0 0 C-1.37592253 3.32514612 -2.75630292 5.33181293 -6 7 C-8.75 6.1875 -8.75 6.1875 -11 5 C-7.6240914 0.45998499 -5.71800716 -1.77455395 0 0 Z " fill="#2E62A0" transform="translate(467,668)"/>
<path d="M0 0 C2.86724686 0.57344937 3.8614515 0.8614515 6 3 C5.625 5.625 5.625 5.625 5 8 C3.68 8 2.36 8 1 8 C0 7 0 7 -0.0625 3.4375 C-0.041875 2.303125 -0.02125 1.16875 0 0 Z " fill="#0D3773" transform="translate(393,566)"/>
<path d="M0 0 C0.66 0.66 1.32 1.32 2 2 C0.46279297 2.09087891 0.46279297 2.09087891 -1.10546875 2.18359375 C-2.46615695 2.26805026 -3.82683343 2.35269567 -5.1875 2.4375 C-5.86103516 2.47681641 -6.53457031 2.51613281 -7.22851562 2.55664062 C-10.18066397 2.74385003 -12.97681587 2.99465468 -15.86328125 3.66015625 C-16.92095703 3.82837891 -16.92095703 3.82837891 -18 4 C-18.66 3.34 -19.32 2.68 -20 2 C-13.50872433 -0.41535839 -6.8776854 -0.65410155 0 0 Z " fill="#3466A2" transform="translate(592,324)"/>
<path d="M0 0 C1.67542976 0.28604898 3.34385343 0.61781233 5 1 C5 2.65 5 4.3 5 6 C3.02 6.99 3.02 6.99 1 8 C-1 6 -1 6 -1.1875 3.4375 C-1 1 -1 1 0 0 Z " fill="#EAF0F5" transform="translate(510,572)"/>
<path d="M0 0 C-1 2 -1 2 -4.0625 3.125 C-5.031875 3.41375 -6.00125 3.7025 -7 4 C-7 3.34 -7 2.68 -7 2 C-14.92 2 -22.84 2 -31 2 C-31 1.67 -31 1.34 -31 1 C-26.77089482 0.83174865 -22.54170681 0.66567565 -18.3125 0.5 C-17.11431641 0.45230469 -15.91613281 0.40460937 -14.68164062 0.35546875 C-13.52470703 0.31035156 -12.36777344 0.26523437 -11.17578125 0.21875 C-9.58117065 0.1559082 -9.58117065 0.1559082 -7.9543457 0.09179688 C-5.30023521 0.00932885 -2.65511397 -0.01717131 0 0 Z " fill="#AABFD8" transform="translate(614,650)"/>
<path d="M0 0 C15.84 0.495 15.84 0.495 32 1 C32 1.33 32 1.66 32 2 C27.41771369 2.25481939 22.83440226 2.47442847 18.25 2.6875 C16.94804687 2.76033203 15.64609375 2.83316406 14.3046875 2.90820312 C13.05429687 2.96298828 11.80390625 3.01777344 10.515625 3.07421875 C9.36352539 3.13182373 8.21142578 3.18942871 7.02441406 3.2487793 C4 3 4 3 0 0 Z " fill="#9DB5D2" transform="translate(409,650)"/>
<path d="M0 0 C4.22042661 0.49940083 6.18355215 2.84670606 9.0625 5.8125 C9.91972656 6.68519531 10.77695312 7.55789063 11.66015625 8.45703125 C13.60008066 10.56536312 15.34229572 12.66834382 17 15 C16.67 15.66 16.34 16.32 16 17 C15.26394531 16.19175781 14.52789062 15.38351562 13.76953125 14.55078125 C12.78391591 13.47129779 11.79823535 12.39187388 10.8125 11.3125 C10.32974609 10.78205078 9.84699219 10.25160156 9.34960938 9.70507812 C6.312614 6.38272748 3.2063098 3.15941679 0 0 Z " fill="#326D9E" transform="translate(483,312)"/>
<path d="M0 0 C-0.33 0.99 -0.66 1.98 -1 3 C-4.3 3.33 -7.6 3.66 -11 4 C-8 0 -8 0 -6.0625 -0.8125 C-3.79631016 -1.01851726 -2.15577438 -0.69292748 0 0 Z " fill="#225999" transform="translate(578,295)"/>
<path d="M0 0 C0.66 0.66 1.32 1.32 2 2 C0.59921602 3.53547475 -0.82120903 5.05305148 -2.25 6.5625 C-3.43335938 7.83287109 -3.43335938 7.83287109 -4.640625 9.12890625 C-7 11 -7 11 -9.296875 10.77734375 C-10.13992188 10.39255859 -10.13992188 10.39255859 -11 10 C-9.93458984 9.04287109 -9.93458984 9.04287109 -8.84765625 8.06640625 C-7.46900391 6.82697266 -7.46900391 6.82697266 -6.0625 5.5625 C-4.68771484 4.32693359 -4.68771484 4.32693359 -3.28515625 3.06640625 C-1.61665644 1.56046061 -1.61665644 1.56046061 0 0 Z " fill="#3EBF79" transform="translate(692,229)"/>
<path d="M0 0 C1.13732426 3.40401948 0.83989957 5.77456664 0.0625 9.25 C-0.13214844 10.14203125 -0.32679688 11.0340625 -0.52734375 11.953125 C-0.68332031 12.62859375 -0.83929688 13.3040625 -1 14 C-1.66 13.34 -2.32 12.68 -3 12 C-3.99 12.495 -3.99 12.495 -5 13 C-4.54554036 11.58208592 -4.08625056 10.16571954 -3.625 8.75 C-3.24214844 7.56664062 -3.24214844 7.56664062 -2.8515625 6.359375 C-2.04826333 4.13372042 -1.10288338 2.09068328 0 0 Z " fill="#CBD7E7" transform="translate(356,487)"/>
<path d="M0 0 C-1.11681345 3.35044034 -2.0436896 4.14916343 -4.6875 6.375 C-5.40292969 6.98214844 -6.11835937 7.58929688 -6.85546875 8.21484375 C-7.91701172 9.09849609 -7.91701172 9.09849609 -9 10 C-9.92232422 10.77537109 -9.92232422 10.77537109 -10.86328125 11.56640625 C-12.23698821 12.7171727 -13.61768397 13.85958928 -15 15 C-13.387672 10.96918 -10.53765404 8.24055863 -7.5 5.25 C-7.00113281 4.74339844 -6.50226562 4.23679687 -5.98828125 3.71484375 C-2.25341139 0 -2.25341139 0 0 0 Z " fill="#3061A4" transform="translate(541,311)"/>
<path d="M0 0 C2.31 0 4.62 0 7 0 C7.33 1.65 7.66 3.3 8 5 C5.36 4.34 2.72 3.68 0 3 C0 2.01 0 1.02 0 0 Z " fill="#2DBC6E" transform="translate(581,333)"/>
<path d="M0 0 C0 3 0 3 -1.53125 4.82421875 C-2.50578125 5.74654297 -2.50578125 5.74654297 -3.5 6.6875 C-4.1496875 7.31011719 -4.799375 7.93273437 -5.46875 8.57421875 C-5.9740625 9.04472656 -6.479375 9.51523437 -7 10 C-7.33 9.34 -7.66 8.68 -8 8 C-8.99 7.67 -9.98 7.34 -11 7 C-10.18595703 6.61908203 -10.18595703 6.61908203 -9.35546875 6.23046875 C-8.64003906 5.88628906 -7.92460937 5.54210937 -7.1875 5.1875 C-6.47980469 4.85105469 -5.77210938 4.51460938 -5.04296875 4.16796875 C-2.98870965 2.99354529 -1.58383722 1.74371984 0 0 Z " fill="#35B774" transform="translate(471,383)"/>
<path d="M0 0 C0.33 0 0.66 0 1 0 C1.4375 2.1875 1.4375 2.1875 1 5 C-1.13995327 6.98441782 -3.50175965 8.5023304 -6 10 C-5.14056592 5.50750368 -3.03778347 3.34156181 0 0 Z " fill="#406DA4" transform="translate(693,193)"/>
<path d="M0 0 C0.66 0 1.32 0 2 0 C2 2.31 2 4.62 2 7 C1.01 7 0.02 7 -1 7 C-1.625 4.625 -1.625 4.625 -2 2 C-1.34 1.34 -0.68 0.68 0 0 Z " fill="#0F4784" transform="translate(627,567)"/>
<path d="M0 0 C2.90408342 3.87211123 3.85079464 6.40317854 5 11 C4.34 11 3.68 11 3 11 C2.67 11.66 2.34 12.32 2 13 C1.34 8.71 0.68 4.42 0 0 Z " fill="#CEDAE6" transform="translate(667,487)"/>
<path d="M0 0 C4.455 0.99 4.455 0.99 9 2 C8.67 3.32 8.34 4.64 8 6 C6.66402348 5.19185349 5.331275 4.37836819 4 3.5625 C3.2575 3.11003906 2.515 2.65757812 1.75 2.19140625 C1.1725 1.79824219 0.595 1.40507813 0 1 C0 0.67 0 0.34 0 0 Z " fill="#CDDBE8" transform="translate(608,818)"/>
<path d="M0 0 C0.99 0.33 1.98 0.66 3 1 C-0.465 3.97 -0.465 3.97 -4 7 C-3.6875 4.625 -3.6875 4.625 -3 2 C-2.01 1.34 -1.02 0.68 0 0 Z " fill="#2562A4" transform="translate(560,819)"/>
<path d="M0 0 C0.33 0.99 0.66 1.98 1 3 C-3.39453125 7.00390625 -3.39453125 7.00390625 -5 8 C-5.99 7.67 -6.98 7.34 -8 7 C-5.36 4.69 -2.72 2.38 0 0 Z " fill="#DBE2E8" transform="translate(468,782)"/>
<path d="M0 0 C0.75 1.75 0.75 1.75 1 4 C-0.9375 6.25 -0.9375 6.25 -3 8 C-3.66 7.67 -4.32 7.34 -5 7 C-1.125 1.125 -1.125 1.125 0 0 Z " fill="#E0E9ED" transform="translate(399,825)"/>
<path d="M0 0 C1.32 1.65 2.64 3.3 4 5 C3.01 5.495 3.01 5.495 2 6 C1.59270772 8.32156597 1.25561323 10.6568787 1 13 C0.67 13 0.34 13 0 13 C0 8.71 0 4.42 0 0 Z " fill="#44C082" transform="translate(327,223)"/>
<path d="M0 0 C0.78375 0.04125 1.5675 0.0825 2.375 0.125 C3.035 1.445 3.695 2.765 4.375 4.125 C-0.08 3.135 -0.08 3.135 -4.625 2.125 C-2.625 0.125 -2.625 0.125 0 0 Z " fill="#3965A3" transform="translate(456.625,296.875)"/>
<path d="M0 0 C2.64 0 5.28 0 8 0 C6.35 1.65 4.7 3.3 3 5 C3 4.01 3 3.02 3 2 C2.01 1.34 1.02 0.68 0 0 Z " fill="#3967A5" transform="translate(413,689)"/>
<path d="M0 0 C2.31 0 4.62 0 7 0 C4.82575883 2.50037734 3.26954202 3.43628586 0 4 C0 2.68 0 1.36 0 0 Z " fill="#C3D2E2" transform="translate(626,681)"/>
<path d="M0 0 C0.66 0.33 1.32 0.66 2 1 C0.35 2.65 -1.3 4.3 -3 6 C-3.99 5.67 -4.98 5.34 -6 5 C-4.02 3.35 -2.04 1.7 0 0 Z " fill="#2C5E99" transform="translate(471,659)"/>
<path d="M0 0 C-1.32 1.32 -2.64 2.64 -4 4 C-4.99 2.68 -5.98 1.36 -7 0 C-3.86650268 -1.04449911 -3.01031744 -0.93423645 0 0 Z " fill="#3B6AA3" transform="translate(548,609)"/>
<path d="M0 0 C2.88437779 1.29299694 4.87219421 2.65941363 7 5 C6.34 5.66 5.68 6.32 5 7 C0 1.125 0 1.125 0 0 Z " fill="#45C07C" transform="translate(551,383)"/>
</svg>
